<svg xmlns="http://www.w3.org/2000/svg" viewBox="0 0 15 15" width="15" height="15" fill="none">
  <circle cx="11.5" cy="3.5" r="0.5" fill="currentColor" />
  <circle cx="13.5" cy="3.5" r="0.5" fill="currentColor" />
  <circle cx="11.5" cy="5.5" r="0.5" fill="currentColor" />
  <circle cx="13.5" cy="5.5" r="0.5" fill="currentColor" />
  <circle cx="11.5" cy="7.5" r="0.5" fill="currentColor" />
  <circle cx="13.5" cy="7.5" r="0.5" fill="currentColor" />
  <circle cx="11.5" cy="9.5" r="0.5" fill="currentColor" />
  <circle cx="13.5" cy="9.5" r="0.5" fill="currentColor" />
  <circle cx="3.5" cy="11.5" r="0.5" fill="currentColor" />
  <circle cx="5.5" cy="11.5" r="0.5" fill="currentColor" />
  <circle cx="7.5" cy="11.5" r="0.5" fill="currentColor" />
  <circle cx="9.5" cy="11.5" r="0.5" fill="currentColor" />
  <circle cx="3.5" cy="13.5" r="0.5" fill="currentColor" />
  <circle cx="5.5" cy="13.5" r="0.5" fill="currentColor" />
  <circle cx="7.5" cy="13.5" r="0.5" fill="currentColor" />
  <circle cx="9.5" cy="13.5" r="0.5" fill="currentColor" />
  <circle cx="11.5" cy="11.5" r="0.5" fill="currentColor" />
  <circle cx="13.5" cy="11.5" r="0.5" fill="currentColor" />
  <circle cx="11.5" cy="13.5" r="0.5" fill="currentColor" />
  <circle cx="13.5" cy="13.5" r="0.5" fill="currentColor" />
  <path d="M2 0h6a2 2 0 0 1 2 2v6a2 2 0 0 1 -2 2h-6a2 2 0 0 1 -2 -2v-6a2 2 0 0 1 2 -2zM2 1h6a1 1 0 0 1 1 1v6a1 1 0 0 1 -1 1h-6a1 1 0 0 1 -1 -1v-6a1 1 0 0 1 1 -1z" fill="currentColor" fill-rule="evenodd" />
</svg>
