<svg xmlns="http://www.w3.org/2000/svg" viewBox="0 0 15 15" width="15" height="15" fill="none">
  <path d="M0 7h2v1h-2z" fill="currentColor" />
  <path d="M4 3h2a1 1 0 0 1 1 1v2a1 1 0 0 1 -1 1h-2a1 1 0 0 1 -1 -1v-2a1 1 0 0 1 1 -1zM4 4h2v2h-2z" fill="currentColor" fill-rule="evenodd" />
  <path d="M9 3h2a1 1 0 0 1 1 1v2a1 1 0 0 1 -1 1h-2a1 1 0 0 1 -1 -1v-2a1 1 0 0 1 1 -1zM9 4h2v2h-2z" fill="currentColor" fill-rule="evenodd" />
  <path d="M4 8h2a1 1 0 0 1 1 1v2a1 1 0 0 1 -1 1h-2a1 1 0 0 1 -1 -1v-2a1 1 0 0 1 1 -1zM4 9h2v2h-2z" fill="currentColor" fill-rule="evenodd" />
  <path d="M9 8h2a1 1 0 0 1 1 1v2a1 1 0 0 1 -1 1h-2a1 1 0 0 1 -1 -1v-2a1 1 0 0 1 1 -1zM9 9h2v2h-2z" fill="currentColor" fill-rule="evenodd" />
  <path d="M13 7h2v1h-2z" fill="currentColor" />
</svg>
