<svg xmlns="http://www.w3.org/2000/svg" viewBox="0 0 15 15" width="15" height="15" fill="none">
  <path d="M6 2h3a1 1 0 0 1 1 1v9a1 1 0 0 1 -1 1h-3a1 1 0 0 1 -1 -1v-9a1 1 0 0 1 1 -1zM6 3h3v9h-3z" fill="currentColor" fill-rule="evenodd" />
  <path d="M0.5 7h3.5v1h-3.5z" fill="currentColor" />
  <path d="M2.5 5.5L0.5 7.5L2.5 9.5" fill="none" stroke="currentColor" stroke-width="1" />
  <path d="M11 7h3.5v1h-3.5z" fill="currentColor" />
  <path d="M12.5 5.5L14.5 7.5L12.5 9.5" fill="none" stroke="currentColor" stroke-width="1" />
</svg>
