<svg xmlns="http://www.w3.org/2000/svg" viewBox="0 0 15 15" width="15" height="15" fill="none">
  <path d="M0 0h1v15h-1z" fill="currentColor" />
  <path d="M2.5 3h1a0.5 0.5 0 0 1 0.5 0.5v8a0.5 0.5 0 0 1 -0.5 0.5h-1a0.5 0.5 0 0 1 -0.5 -0.5v-8a0.5 0.5 0 0 1 0.5 -0.5z" fill="currentColor" />
  <path d="M7 3h1a0.5 0.5 0 0 1 0.5 0.5v8a0.5 0.5 0 0 1 -0.5 0.5h-1a0.5 0.5 0 0 1 -0.5 -0.5v-8a0.5 0.5 0 0 1 0.5 -0.5z" fill="currentColor" />
  <path d="M11.5 3h1a0.5 0.5 0 0 1 0.5 0.5v8a0.5 0.5 0 0 1 -0.5 0.5h-1a0.5 0.5 0 0 1 -0.5 -0.5v-8a0.5 0.5 0 0 1 0.5 -0.5z" fill="currentColor" />
  <path d="M14 0h1v15h-1z" fill="currentColor" />
</svg>
