<svg xmlns="http://www.w3.org/2000/svg" viewBox="0 0 15 15" width="15" height="15" fill="none">
  <path d="M2 1h11a1 1 0 0 1 1 1v11a1 1 0 0 1 -1 1h-11a1 1 0 0 1 -1 -1v-11a1 1 0 0 1 1 -1zM2 2h11v11h-11z" fill="currentColor" fill-rule="evenodd" />
  <circle cx="4.5" cy="4.5" r="0.5" fill="currentColor" />
  <circle cx="7.5" cy="4.5" r="0.5" fill="currentColor" />
  <circle cx="10.5" cy="4.5" r="0.5" fill="currentColor" />
  <circle cx="10.5" cy="4.5" r="0.5" fill="currentColor" />
  <circle cx="10.5" cy="7.5" r="0.5" fill="currentColor" />
  <circle cx="10.5" cy="10.5" r="0.5" fill="currentColor" />
  <circle cx="4.5" cy="10.5" r="0.5" fill="currentColor" />
  <circle cx="7.5" cy="10.5" r="0.5" fill="currentColor" />
  <circle cx="10.5" cy="10.5" r="0.5" fill="currentColor" />
  <circle cx="4.5" cy="4.5" r="0.5" fill="currentColor" />
  <circle cx="4.5" cy="7.5" r="0.5" fill="currentColor" />
  <circle cx="4.5" cy="10.5" r="0.5" fill="currentColor" />
</svg>
