<svg xmlns="http://www.w3.org/2000/svg" viewBox="0 0 15 15" width="15" height="15" fill="none">
  <path d="M2 0h11a2 2 0 0 1 2 2v11a2 2 0 0 1 -2 2h-11a2 2 0 0 1 -2 -2v-11a2 2 0 0 1 2 -2zM2 1h11a1 1 0 0 1 1 1v11a1 1 0 0 1 -1 1h-11a1 1 0 0 1 -1 -1v-11a1 1 0 0 1 1 -1z" fill="currentColor" fill-rule="evenodd" />
  <path d="M1 4h13v1h-13z" fill="currentColor" />
  <path d="M7.5 12.5L7.5 7.5" fill="none" stroke="currentColor" stroke-width="1" />
  <path d="M5.5 9.5L7.5 7.5L9.5 9.5" fill="none" stroke="currentColor" stroke-width="1" />
</svg>
