<svg xmlns="http://www.w3.org/2000/svg" viewBox="0 0 15 15" width="15" height="15" fill="none">
  <path d="M2.07 11.50L0.99 11.50L3.89 3.50L5.07 3.50L8.01 11.50L6.94 11.50L5.24 6.75Q5.09 6.31 4.88 5.66Q4.67 5.00 4.38 3.98L4.38 3.98L4.57 3.98Q4.28 5.01 4.07 5.68Q3.86 6.35 3.72 6.75L3.72 6.75L2.07 11.50ZM6.55 9.27L2.45 9.27L2.45 8.38L6.55 8.38L6.55 9.27Z" fill="currentColor" />
  <path d="M11.14 11.50L11.14 11.50Q10.59 11.50 10.14 11.29Q9.69 11.09 9.43 10.69Q9.16 10.29 9.16 9.72L9.16 9.72Q9.16 9.22 9.36 8.91Q9.56 8.60 9.89 8.42Q10.22 8.24 10.61 8.15Q11.01 8.06 11.42 8.01L11.42 8.01Q11.94 7.95 12.26 7.91Q12.59 7.87 12.75 7.78Q12.90 7.70 12.90 7.48L12.90 7.48L12.90 7.45Q12.90 7.09 12.77 6.84Q12.63 6.59 12.37 6.45Q12.10 6.32 11.69 6.32L11.69 6.32Q11.28 6.32 10.98 6.45Q10.69 6.58 10.50 6.77Q10.32 6.97 10.23 7.17L10.23 7.17L9.33 6.87Q9.55 6.34 9.93 6.05Q10.31 5.75 10.76 5.62Q11.22 5.50 11.67 5.50L11.67 5.50Q11.96 5.50 12.33 5.57Q12.70 5.64 13.04 5.85Q13.39 6.05 13.61 6.46Q13.84 6.87 13.84 7.55L13.84 7.55L13.84 11.37L12.92 11.37L12.92 10.58L12.86 10.58Q12.76 10.78 12.54 10.99Q12.32 11.21 11.98 11.35Q11.63 11.50 11.14 11.50ZM11.30 10.68L11.30 10.68Q11.82 10.68 12.17 10.47Q12.53 10.27 12.72 9.95Q12.90 9.62 12.90 9.27L12.90 9.27L12.90 8.47Q12.85 8.54 12.66 8.59Q12.46 8.65 12.22 8.69Q11.97 8.73 11.74 8.76Q11.51 8.78 11.38 8.80L11.38 8.80Q11.04 8.84 10.75 8.94Q10.45 9.04 10.28 9.24Q10.10 9.43 10.10 9.76L10.10 9.76Q10.10 10.06 10.26 10.27Q10.41 10.47 10.68 10.57Q10.95 10.68 11.30 10.68Z" fill="currentColor" />
</svg>
