<svg xmlns="http://www.w3.org/2000/svg" viewBox="0 0 15 15" width="15" height="15" fill="none">
  <path d="M4.14 10.50L4.14 10.50Q3.59 10.50 3.14 10.29Q2.69 10.09 2.43 9.69Q2.16 9.29 2.16 8.72L2.16 8.72Q2.16 8.22 2.36 7.91Q2.56 7.60 2.89 7.42Q3.22 7.24 3.61 7.15Q4.01 7.06 4.42 7.01L4.42 7.01Q4.94 6.95 5.26 6.91Q5.59 6.87 5.75 6.78Q5.90 6.70 5.90 6.48L5.90 6.48L5.90 6.45Q5.90 6.09 5.77 5.84Q5.63 5.59 5.37 5.45Q5.10 5.32 4.69 5.32L4.69 5.32Q4.28 5.32 3.98 5.45Q3.69 5.58 3.50 5.77Q3.32 5.97 3.23 6.17L3.23 6.17L2.33 5.87Q2.55 5.34 2.93 5.05Q3.31 4.75 3.76 4.62Q4.22 4.50 4.67 4.50L4.67 4.50Q4.96 4.50 5.33 4.57Q5.70 4.64 6.04 4.85Q6.39 5.05 6.61 5.46Q6.84 5.87 6.84 6.55L6.84 6.55L6.84 10.37L5.92 10.37L5.92 9.58L5.86 9.58Q5.76 9.78 5.54 9.99Q5.32 10.21 4.98 10.35Q4.63 10.50 4.14 10.50ZM4.30 9.68L4.30 9.68Q4.82 9.68 5.17 9.47Q5.53 9.27 5.72 8.95Q5.90 8.62 5.90 8.27L5.90 8.27L5.90 7.47Q5.85 7.54 5.66 7.59Q5.46 7.65 5.22 7.69Q4.97 7.73 4.74 7.76Q4.51 7.78 4.38 7.80L4.38 7.80Q4.04 7.84 3.75 7.94Q3.45 8.04 3.28 8.24Q3.10 8.43 3.10 8.76L3.10 8.76Q3.10 9.06 3.26 9.27Q3.41 9.47 3.68 9.57Q3.95 9.68 4.30 9.68Z" fill="currentColor" />
  <path d="M10.14 10.50L10.14 10.50Q9.59 10.50 9.14 10.29Q8.69 10.09 8.43 9.69Q8.16 9.29 8.16 8.72L8.16 8.72Q8.16 8.22 8.36 7.91Q8.56 7.60 8.89 7.42Q9.22 7.24 9.61 7.15Q10.01 7.06 10.42 7.01L10.42 7.01Q10.94 6.95 11.26 6.91Q11.59 6.87 11.75 6.78Q11.90 6.70 11.90 6.48L11.90 6.48L11.90 6.45Q11.90 6.09 11.77 5.84Q11.63 5.59 11.37 5.45Q11.10 5.32 10.69 5.32L10.69 5.32Q10.28 5.32 9.98 5.45Q9.69 5.58 9.50 5.77Q9.32 5.97 9.23 6.17L9.23 6.17L8.33 5.87Q8.55 5.34 8.93 5.05Q9.31 4.75 9.76 4.62Q10.22 4.50 10.67 4.50L10.67 4.50Q10.96 4.50 11.33 4.57Q11.70 4.64 12.04 4.85Q12.39 5.05 12.61 5.46Q12.84 5.87 12.84 6.55L12.84 6.55L12.84 10.37L11.92 10.37L11.92 9.58L11.86 9.58Q11.76 9.78 11.54 9.99Q11.32 10.21 10.98 10.35Q10.63 10.50 10.14 10.50ZM10.30 9.68L10.30 9.68Q10.82 9.68 11.17 9.47Q11.53 9.27 11.72 8.95Q11.90 8.62 11.90 8.27L11.90 8.27L11.90 7.47Q11.85 7.54 11.66 7.59Q11.46 7.65 11.22 7.69Q10.97 7.73 10.74 7.76Q10.51 7.78 10.38 7.80L10.38 7.80Q10.04 7.84 9.75 7.94Q9.45 8.04 9.28 8.24Q9.10 8.43 9.10 8.76L9.10 8.76Q9.10 9.06 9.26 9.27Q9.41 9.47 9.68 9.57Q9.95 9.68 10.30 9.68Z" fill="currentColor" />
</svg>
