<svg width="24" height="24" viewBox="0 0 24 24" fill="none" xmlns="http://www.w3.org/2000/svg">
<path d="M3.13794 4.38659L4.58592 3L9.9342 8.60384C10.4089 8.29726 11.1269 7.95726 11.9999 7.95726C12.873 7.95726 13.591 8.29726 14.0657 8.60385L19.414 3L20.862 4.38659L14.1312 11.4389L13.413 10.6395L13.4002 10.6263C13.3851 10.6111 13.3587 10.5851 13.322 10.552C13.2478 10.4849 13.1366 10.3929 12.9969 10.3012C12.7074 10.111 12.3605 9.96383 11.9999 9.96383C11.6394 9.96383 11.2925 10.111 11.003 10.3012C10.8633 10.3929 10.7521 10.4849 10.6779 10.552C10.6412 10.5851 10.6148 10.6111 10.5997 10.6263L10.5869 10.6395L9.86866 11.4389L3.13794 4.38659Z" fill="currentColor"/>
<path d="M17.7223 17.0783C18.4522 15.8852 18.907 14.5003 19.0256 13.8074L21 14.1466C20.8375 15.0955 20.2906 16.7204 19.4303 18.1267C18.6102 19.4672 17.261 21 15.3738 21C14.0747 21 13.0442 20.5357 12.3517 20.0863C12.2238 20.0034 12.1065 19.9203 12 19.8399C11.8935 19.9203 11.7762 20.0034 11.6483 20.0863C10.9558 20.5357 9.9253 21 8.62618 21C6.73899 21 5.38978 19.4672 4.56969 18.1267C3.70935 16.7204 3.16249 15.0955 3 14.1466L4.97437 13.8074C5.09303 14.5003 5.54777 15.8852 6.2777 17.0783C7.04787 18.3372 7.87758 18.9934 8.62618 18.9934C9.4357 18.9934 10.0921 18.7053 10.5593 18.4022C10.792 18.2512 10.9705 18.101 11.0875 17.992C11.1457 17.9378 11.1877 17.8948 11.2126 17.8684C11.225 17.8552 11.2331 17.8462 11.2367 17.8421L11.2376 17.8411L12 16.9342L12.7624 17.8411L12.7633 17.8421C12.7669 17.8462 12.775 17.8552 12.7874 17.8684C12.8123 17.8948 12.8543 17.9378 12.9125 17.992C13.0295 18.101 13.208 18.2512 13.4407 18.4022C13.9079 18.7053 14.5643 18.9934 15.3738 18.9934C16.1224 18.9934 16.9521 18.3372 17.7223 17.0783Z" fill="currentColor"/>
<path fill-rule="evenodd" clip-rule="evenodd" d="M11.9999 12.7246C10.8926 12.7246 9.99501 13.6222 9.99501 14.7295C9.99501 15.8367 10.8926 16.7344 11.9999 16.7344C13.1072 16.7344 14.0048 15.8367 14.0048 14.7295C14.0048 13.6222 13.1072 12.7246 11.9999 12.7246ZM11.4987 14.7295C11.4987 14.4527 11.7231 14.2283 11.9999 14.2283C12.2767 14.2283 12.5011 14.4527 12.5011 14.7295C12.5011 15.0063 12.2767 15.2307 11.9999 15.2307C11.7231 15.2307 11.4987 15.0063 11.4987 14.7295Z" fill="currentColor"/>
</svg>
