<svg width="24" height="24" viewBox="0 0 24 24" fill="none" xmlns="http://www.w3.org/2000/svg">
<path d="M17 16C17 16.5523 16.5523 17 16 17C15.4477 17 15 16.5523 15 16C15 15.4477 15.4477 15 16 15C16.5523 15 17 15.4477 17 16Z" fill="currentColor"/>
<path d="M9 13C9.55228 13 10 12.5523 10 12C10 11.4477 9.55228 11 9 11C8.44772 11 8 11.4477 8 12C8 12.5523 8.44772 13 9 13Z" fill="currentColor"/>
<path d="M9 8C9 8.55228 8.55228 9 8 9C7.44772 9 7 8.55228 7 8C7 7.44772 7.44772 7 8 7C8.55228 7 9 7.44772 9 8Z" fill="currentColor"/>
<path d="M12 16C12.5523 16 13 15.5523 13 15C13 14.4477 12.5523 14 12 14C11.4477 14 11 14.4477 11 15C11 15.5523 11.4477 16 12 16Z" fill="currentColor"/>
<path fill-rule="evenodd" clip-rule="evenodd" d="M8.5 2V4.01479C8.67754 4.03037 8.85265 4.05806 9.02411 4.09773C9.51126 4.21041 9.97026 4.42295 10.3606 4.72528L11.293 3.79289L12.7072 5.20711L11.4724 6.44187C11.496 6.54014 11.5153 6.64104 11.5301 6.7445C11.7469 8.26459 12.1762 9.31693 12.5314 9.97147L12.5608 10.025L13.793 8.79289L15.2072 10.2071L13.9874 11.4269C14.5404 11.6949 15.4261 12.0079 16.7709 12.2003L16.7811 12.2018L17.6056 10.5528L19.3945 11.4472L18.5863 13.0635C19.0876 13.5081 19.4747 14.0798 19.7123 14.6885C20.0291 15.5 20.1079 16.4431 19.8264 17.3491L21.0547 18.1679L19.9453 19.8321L18.7573 19.0401C18.144 19.5829 17.3358 19.8483 16.5288 19.9488L16.5 19.9523V22H14.5V19.9214C14.159 19.8772 13.8142 19.8152 13.4697 19.7375C12.7009 19.564 11.9074 19.3058 11.1325 18.9708L10.3943 20.4472L8.60547 19.5528L9.36065 18.0424C8.67796 17.6143 8.04279 17.1226 7.49226 16.574C7.46692 16.5488 7.44169 16.5233 7.41657 16.4977L6.20718 17.7071L4.79297 16.2929L6.15475 14.9311C5.56534 14.0487 5.08173 13.0765 4.72344 12.0999L3.24264 12.4701L2.75757 10.5299L4.18111 10.174C4.01189 9.30303 3.95235 8.44109 4.04059 7.65783C4.05873 7.49686 4.08357 7.33576 4.11607 7.1761L2.55273 6.39443L3.44716 4.60557L4.98368 5.37383C5.0506 5.30183 5.12162 5.23266 5.19695 5.16664C5.60504 4.80901 6.04598 4.53539 6.5 4.34332V2H8.5ZM6.51512 6.67078C7.22717 6.04677 8.00554 5.91492 8.57339 6.04628C9.13579 6.17637 9.48105 6.54287 9.5501 7.02692C9.80168 8.79075 10.3092 10.0697 10.7736 10.9255C11.0053 11.3524 11.225 11.6717 11.3945 11.8917C11.4792 12.0017 11.5513 12.0868 11.606 12.1482C11.6334 12.1789 11.6564 12.2036 11.6745 12.2226L11.6757 12.2239C11.6938 12.2443 11.716 12.2686 11.7428 12.2961C11.7977 12.3527 11.8714 12.423 11.9666 12.5033C12.1572 12.6641 12.4322 12.8632 12.8125 13.0709C13.5741 13.487 14.7449 13.9308 16.4877 14.1802C17.0092 14.2548 17.5734 14.7091 17.8492 15.4157C18.1108 16.086 18.0538 16.8422 17.5156 17.4582C17.329 17.6718 16.9482 17.8811 16.2817 17.9641C15.6286 18.0455 14.809 17.9895 13.91 17.7866C12.1018 17.3785 10.1746 16.4234 8.90398 15.1573C7.64388 13.9017 6.66819 11.9999 6.23713 10.2173C6.02271 9.33057 5.95568 8.52387 6.02802 7.88172C6.10169 7.22779 6.30441 6.85544 6.51512 6.67078Z" fill="currentColor"/>
</svg>
