<svg width="24" height="24" viewBox="0 0 24 24" fill="none" xmlns="http://www.w3.org/2000/svg">
<path fill-rule="evenodd" clip-rule="evenodd" d="M5.0541 5.38997C6.33881 3.97834 8.36416 3.00452 11.2795 3.00452C12.7122 3.00452 13.8119 3.17726 14.7387 3.54474C15.6798 3.91782 16.3323 4.44952 16.8979 4.96642C16.9376 5.00266 16.9784 5.03941 17.0229 5.07944C17.036 5.09128 17.0496 5.10343 17.0634 5.11587C17.4028 5.42033 17.9407 5.90289 18.2208 6.63829C18.7544 8.03925 19.7287 10.1078 20.3848 11.461C20.9916 12.7126 20.3738 14.1463 19.1925 14.6447V15.9978C19.1925 17.286 18.1481 18.3304 16.8599 18.3304H15.5711V20.9955H13.5711V16.3304H16.8599C17.0436 16.3304 17.1925 16.1815 17.1925 15.9978V12.8265H18.28C18.5259 12.8265 18.6969 12.5639 18.5852 12.3336C17.9316 10.9855 16.9206 8.84367 16.3518 7.3502C16.2578 7.10339 16.0693 6.9118 15.6852 6.56625L15.684 6.56517C15.6409 6.52636 15.5947 6.48479 15.5487 6.44281C15.0525 5.98937 14.6112 5.64562 14.0016 5.40395C13.3867 5.16015 12.559 5.00452 11.2795 5.00452C8.83896 5.00452 7.38331 5.80207 6.53324 6.73613C5.66796 7.68689 5.37926 8.83464 5.37927 9.5974C5.3793 11.7452 6.60657 13.4672 7.34988 14.2686L7.6167 14.5563V20.9955H5.6167V15.3276C4.70525 14.2529 3.3793 12.2087 3.37927 9.59743C3.37926 8.40759 3.80887 6.75822 5.0541 5.38997Z" fill="currentColor"/>
</svg>
