<svg width="24" height="24" viewBox="0 0 24 24" fill="none" xmlns="http://www.w3.org/2000/svg">
<path d="M15.176 2.06152C15.7283 2.06153 16.176 2.50925 16.176 3.06153L16.176 5.29396C16.1761 5.86156 16.0676 6.42452 15.8562 6.95046C15.6955 7.35011 15.4775 7.7231 15.2093 8.05708C15.7013 8.24434 16.1714 8.52678 16.5653 8.9324C17.36 9.75082 17.8015 10.8547 17.8015 11.9999C17.8015 13.145 17.36 14.2489 16.5653 15.0673C16.1647 15.4799 15.7039 15.7676 15.2178 15.9563C15.8355 16.7318 16.1738 17.7029 16.1736 18.7055V20.9307C16.1736 21.483 15.7259 21.9307 15.1736 21.9307C14.6213 21.9307 14.1736 21.483 14.1736 20.9307V18.7055C14.1737 18.0725 13.9295 17.4708 13.5034 17.0317C13.0222 16.5358 12.4379 16.2544 11.9197 16.2541C11.882 16.2541 11.8449 16.252 11.8084 16.2479C11.7716 16.252 11.7343 16.2541 11.6965 16.2541H9.52759C8.9753 16.2541 8.52759 15.8064 8.52759 15.2541C8.52759 14.7018 8.9753 14.2541 9.52759 14.2541H11.6965C11.7343 14.2541 11.7716 14.2562 11.8084 14.2603C11.8451 14.2562 11.8824 14.2541 11.9202 14.2541H13.5457C14.2177 14.2541 14.7568 14.0588 15.1305 13.674C15.5569 13.2349 15.8015 12.6332 15.8015 11.9999C15.8015 11.3665 15.5569 10.7648 15.1305 10.3257C14.7733 9.95791 14.1507 9.74564 13.447 9.74564H11.8215C11.8006 9.74564 11.7799 9.74499 11.7593 9.74373C11.7386 9.74501 11.7176 9.74567 11.6965 9.74567H10.6121C10.0598 9.74567 9.61206 9.29795 9.61206 8.74567C9.61206 8.19338 10.0598 7.74567 10.6121 7.74567H11.6965C11.7175 7.74567 11.7382 7.74631 11.7589 7.74758C11.7796 7.74629 11.8005 7.74564 11.8215 7.74564H11.8229C12.1146 7.74557 12.4042 7.68642 12.6754 7.57078C12.9173 7.4676 13.2686 7.21224 13.5052 6.9686C13.7161 6.7514 13.8849 6.49195 14.0005 6.20434C14.1162 5.91669 14.176 5.60741 14.176 5.29444L14.176 3.06151C14.176 2.50923 14.6237 2.06152 15.176 2.06152Z" fill="currentColor"/>
<path d="M9.20858 12.9999C8.89842 13 8.5908 13.0668 8.30523 13.1973C8.01956 13.3278 7.76128 13.5195 7.54809 13.7619C7.33483 14.0043 7.17164 14.2919 7.07066 14.6068C6.97091 14.9179 6.93448 15.2476 6.96409 15.5748C7.03955 16.178 7.32684 16.7256 7.76336 17.1163C7.90649 17.2443 8.22493 17.4075 8.68453 17.5346C9.1247 17.6563 9.57095 17.7112 9.87321 17.7058L9.89109 17.7056H10.5643C10.8067 17.7056 11.046 17.7548 11.2682 17.8497C11.4903 17.9445 11.6902 18.0826 11.8572 18.2547C12.0241 18.4267 12.1549 18.6292 12.2437 18.8501C12.3325 19.0709 12.3778 19.3065 12.3778 19.5438V20.9131C12.3778 21.4654 11.9301 21.9131 11.3778 21.9131C10.8255 21.9131 10.3778 21.4654 10.3778 20.9131V19.7056H9.89941C9.37735 19.7137 8.74238 19.6257 8.15137 19.4622C7.57618 19.3031 6.9104 19.0368 6.42969 18.6067C5.62146 17.8834 5.10696 16.8832 4.97689 15.8014L4.97427 15.777C4.91693 15.1766 4.98214 14.57 5.16618 13.9961C5.35024 13.4221 5.6495 12.8921 6.04637 12.4409C6.26805 12.1889 6.51751 11.9645 6.78948 11.7722C6.72025 11.7035 6.65325 11.6324 6.58861 11.5589C6.19174 11.1077 5.89248 10.5777 5.70842 10.0037C5.52438 9.42979 5.45917 8.82328 5.51651 8.2228L5.51913 8.19848C5.64919 7.11667 6.1637 6.11641 6.97193 5.39317C7.7786 4.67133 8.82071 4.27736 9.8993 4.29423H10.3777V3.06152C10.3777 2.50924 10.8254 2.06152 11.3777 2.06152C11.93 2.06152 12.3777 2.50924 12.3777 3.06152V4.45602C12.3777 4.69333 12.3323 4.92898 12.2436 5.14977C12.1548 5.37061 12.0239 5.57317 11.857 5.74516C11.6901 5.91721 11.4902 6.05534 11.2681 6.15015C11.0458 6.245 10.8066 6.29423 10.5642 6.29423H9.89095L9.87308 6.29407C9.3028 6.28387 8.74423 6.49108 8.3056 6.88358C7.86907 7.2742 7.58179 7.82184 7.50632 8.42505C7.47672 8.75224 7.51314 9.08194 7.6129 9.39304C7.71388 9.70793 7.87707 9.99552 8.09033 10.238C8.30351 10.4803 8.56179 10.672 8.84746 10.8025C9.13304 10.933 9.44066 10.9999 9.75082 10.9999C9.75395 10.9999 9.75707 10.9999 9.76019 10.9999H12.4619C13.0142 10.9999 13.4619 11.4477 13.4619 11.9999C13.4619 12.5522 13.0142 12.9999 12.4619 12.9999H9.20858Z" fill="currentColor"/>
</svg>
