<svg width="24" height="24" viewBox="0 0 24 24" fill="none" xmlns="http://www.w3.org/2000/svg">
<path d="M5.98961 8.97079C5.98961 8.22582 6.36194 7.48084 6.92077 6.92142L6.92696 6.91525C7.48717 6.3572 8.2332 5.9854 8.97922 5.9854C8.2332 5.9854 7.48717 5.61359 6.92696 5.05555L6.92077 5.04937C6.36194 4.48995 5.98961 3.74498 5.98961 3C5.98961 3.74498 5.61728 4.48995 5.05845 5.04937L5.05226 5.05555C4.49206 5.61359 3.74603 5.9854 3 5.9854C3.74603 5.9854 4.49206 6.3572 5.05226 6.91525L5.05845 6.92142C5.61728 7.48084 5.98961 8.22582 5.98961 8.97079Z" fill="currentColor"/>
<path d="M14.4602 8.97079C14.4602 8.22582 14.8325 7.48084 15.3913 6.92142L15.3975 6.91525C15.9577 6.3572 16.7038 5.9854 17.4498 5.9854C16.7038 5.9854 15.9577 5.61359 15.3975 5.05555L15.3913 5.04937C14.8325 4.48995 14.4602 3.74498 14.4602 3C14.4602 3.74498 14.0879 4.48995 13.529 5.04937L13.5228 5.05555C12.9626 5.61359 12.2166 5.9854 11.4706 5.9854C12.2166 5.9854 12.9626 6.3572 13.5228 6.91525L13.529 6.92142C14.0879 7.48084 14.4602 8.22582 14.4602 8.97079Z" fill="currentColor"/>
<path d="M6.92077 15.8776C6.36194 16.437 5.98961 17.182 5.98961 17.927C5.98961 17.182 5.61728 16.437 5.05845 15.8776L5.05226 15.8714C4.49206 15.3134 3.74603 14.9416 3 14.9416C3.74603 14.9416 4.49206 14.5698 5.05226 14.0117L5.05845 14.0056C5.61728 13.4461 5.98961 12.7012 5.98961 11.9562C5.98961 12.7012 6.36194 13.4461 6.92077 14.0056L6.92696 14.0117C7.48717 14.5698 8.2332 14.9416 8.97922 14.9416C8.2332 14.9416 7.48717 15.3134 6.92696 15.8714L6.92077 15.8776Z" fill="currentColor"/>
<path fill-rule="evenodd" clip-rule="evenodd" d="M8.30442 11.8406C7.81795 11.3549 7.81795 10.5673 8.30442 10.0815L10.0661 8.32232C10.5525 7.83654 11.3412 7.83654 11.8277 8.32232L20.6352 17.1173C21.1216 17.6031 21.1216 18.3907 20.6352 18.8765L18.8735 20.6357C18.387 21.1214 17.5983 21.1214 17.1119 20.6357L8.30442 11.8406ZM12.2481 13.6678L17.9927 19.4043L19.402 17.9969L13.6574 12.2605L12.2481 13.6678ZM11.1911 12.6123L12.6004 11.205L10.9469 9.55373L9.53757 10.9611L11.1911 12.6123Z" fill="currentColor"/>
</svg>
