<svg width="24" height="24" viewBox="0 0 24 24" fill="none" xmlns="http://www.w3.org/2000/svg">
<path d="M6.93387 15.8978C7.22988 15.6049 7.22988 15.13 6.93387 14.8371C6.63787 14.5442 6.15794 14.5442 5.86194 14.8371C5.56593 15.13 5.56593 15.6049 5.86194 15.8978C6.15794 16.1907 6.63787 16.1907 6.93387 15.8978Z" fill="currentColor"/>
<path d="M8.7205 14.1299C9.0165 13.837 9.0165 13.3622 8.7205 13.0693C8.42449 12.7764 7.94456 12.7764 7.64856 13.0693C7.35255 13.3622 7.35255 13.837 7.64856 14.1299C7.94456 14.4228 8.42449 14.4228 8.7205 14.1299Z" fill="currentColor"/>
<path d="M10.5071 11.3015C10.8031 11.5943 10.8031 12.0692 10.5071 12.3621C10.2111 12.655 9.73118 12.655 9.43518 12.3621C9.13917 12.0692 9.13917 11.5943 9.43518 11.3015C9.73119 11.0086 10.2111 11.0086 10.5071 11.3015Z" fill="currentColor"/>
<path d="M12.2935 10.5945C12.5895 10.3016 12.5895 9.82677 12.2935 9.53388C11.9975 9.24099 11.5176 9.24099 11.2216 9.53388C10.9255 9.82677 10.9255 10.3016 11.2216 10.5945C11.5176 10.8874 11.9975 10.8874 12.2935 10.5945Z" fill="currentColor"/>
<path d="M14.0801 7.76606C14.3761 8.05895 14.3761 8.53382 14.0801 8.82672C13.7841 9.11961 13.3042 9.11961 13.0082 8.82672C12.7122 8.53382 12.7122 8.05895 13.0082 7.76606C13.3042 7.47316 13.7841 7.47316 14.0801 7.76606Z" fill="currentColor"/>
<path d="M15.8667 7.05889C16.1627 6.766 16.1627 6.29113 15.8667 5.99823C15.5707 5.70534 15.0908 5.70534 14.7948 5.99823C14.4988 6.29113 14.4988 6.766 14.7948 7.05889C15.0908 7.35179 15.5707 7.35179 15.8667 7.05889Z" fill="currentColor"/>
<path d="M8.72044 17.6655C9.01645 17.3726 9.01645 16.8978 8.72044 16.6049C8.42443 16.312 7.94451 16.312 7.6485 16.6049C7.35249 16.8978 7.35249 17.3726 7.6485 17.6655C7.94451 17.9584 8.42443 17.9584 8.72044 17.6655Z" fill="currentColor"/>
<path d="M10.5071 15.8977C10.8031 15.6048 10.8031 15.1299 10.5071 14.837C10.2111 14.5442 9.73113 14.5442 9.43512 14.837C9.13911 15.1299 9.13911 15.6048 9.43512 15.8977C9.73113 16.1906 10.2111 16.1906 10.5071 15.8977Z" fill="currentColor"/>
<path d="M12.2937 13.0692C12.5897 13.3621 12.5897 13.837 12.2937 14.1299C11.9977 14.4228 11.5178 14.4228 11.2217 14.1299C10.9257 13.837 10.9257 13.3621 11.2217 13.0692C11.5178 12.7763 11.9977 12.7763 12.2937 13.0692Z" fill="currentColor"/>
<path d="M14.0801 12.3623C14.3761 12.0694 14.3761 11.5945 14.0801 11.3016C13.784 11.0088 13.3041 11.0088 13.0081 11.3016C12.7121 11.5945 12.7121 12.0694 13.0081 12.3623C13.3041 12.6552 13.784 12.6552 14.0801 12.3623Z" fill="currentColor"/>
<path d="M15.8667 9.53382C16.1627 9.82672 16.1627 10.3016 15.8667 10.5945C15.5707 10.8874 15.0907 10.8874 14.7947 10.5945C14.4987 10.3016 14.4987 9.82672 14.7947 9.53382C15.0907 9.24093 15.5707 9.24093 15.8667 9.53382Z" fill="currentColor"/>
<path d="M17.6533 8.82666C17.9493 8.53377 17.9493 8.05889 17.6533 7.766C17.3573 7.47311 16.8774 7.47311 16.5814 7.766C16.2854 8.05889 16.2854 8.53377 16.5814 8.82666C16.8774 9.11955 17.3573 9.11955 17.6533 8.82666Z" fill="currentColor"/>
<path fill-rule="evenodd" clip-rule="evenodd" d="M16.8433 3.74753C15.8477 2.75082 14.2298 2.75082 13.2342 3.74753L3.74315 13.2491C2.7524 14.2409 2.7524 15.8454 3.74315 16.8372L6.90684 20.0044C7.90245 21.0011 9.52036 21.0011 10.516 20.0044L20.007 10.5029C20.9978 9.51105 20.9978 7.90655 20.007 6.91471L16.8433 3.74753ZM14.3124 4.80198C14.7146 4.39934 15.363 4.39934 15.7652 4.80198L18.9288 7.96915C19.3359 8.37666 19.3359 9.04094 18.9289 9.44845L9.43779 18.95C9.0356 19.3526 8.38722 19.3526 7.98502 18.95L4.82133 15.7828C4.41428 15.3753 4.41428 14.711 4.82133 14.3035L14.3124 4.80198Z" fill="currentColor"/>
</svg>
