<svg width="24" height="24" viewBox="0 0 24 24" fill="none" xmlns="http://www.w3.org/2000/svg">
<path d="M7.1646 2.07922C5.37835 2.97235 4.25002 4.79804 4.25002 6.79513V14.0565L3.93726 14.2285C3.86919 14.2659 3.7198 14.3479 3.58827 14.4701C3.44241 14.6057 3.25 14.855 3.25 15.2188C3.25 16.163 3.37076 17.2123 3.71699 18.1638C4.05987 19.1061 4.64255 19.999 5.59191 20.5553L5.84366 20.7366L5.8779 20.7561C6.11859 20.8937 6.42554 20.9534 6.65824 20.9856C6.9204 21.0219 7.21461 21.0386 7.5 21.0386C7.78539 21.0386 8.0796 21.0219 8.34176 20.9856C8.57446 20.9534 8.88141 20.8937 9.1221 20.7561L9.15634 20.7366L9.40809 20.5553C10.3575 19.999 10.9401 19.1061 11.283 18.1638C11.6293 17.2123 11.75 16.163 11.75 15.2188C11.75 14.855 11.5576 14.6057 11.4117 14.4701C11.2802 14.3479 11.1308 14.2659 11.0628 14.2285L10.75 14.0565V10.5C10.75 10.1145 10.9809 9.68609 11.4448 9.32264C11.6878 9.13225 11.9667 8.98348 12.25 8.88535V12.5C12.25 14.8473 14.1528 16.75 16.5 16.75C18.8472 16.75 20.75 14.8473 20.75 12.5V8.00004H19.25V12.5C19.25 14.0188 18.0188 15.25 16.5 15.25C14.9812 15.25 13.75 14.0188 13.75 12.5V7.25004H13C12.1231 7.25004 11.2135 7.59829 10.5197 8.14191C9.82872 8.68329 9.25002 9.50485 9.25002 10.5V14.9436L10.2461 15.4912C10.2245 16.2368 10.1125 16.9939 9.87344 17.6509C9.6061 18.3856 9.19916 18.9473 8.6279 19.2737L8.59366 19.2933L8.37196 19.453C8.35411 19.4581 8.3153 19.4689 8.25 19.4813V7.00004C8.25 6.30969 8.80964 5.75004 9.5 5.75004H17.5V4.25004H9.5C7.98122 4.25004 6.75 5.48126 6.75 7.00004V19.4813C6.68471 19.4689 6.6459 19.4581 6.62805 19.453L6.40634 19.2933L6.3721 19.2737C5.80085 18.9473 5.3939 18.3856 5.12657 17.6509C4.88749 16.9939 4.77547 16.2368 4.75392 15.4912L5.75002 14.9436V6.79513C5.75002 5.3662 6.55735 4.0599 7.83543 3.42086L7.1646 2.07922Z" fill="currentColor"/>
</svg>
