<svg width="24" height="24" viewBox="0 0 24 24" fill="none" xmlns="http://www.w3.org/2000/svg">
<path fill-rule="evenodd" clip-rule="evenodd" d="M17.75 8.17715V2.5H16.25V7.75482C15.2634 7.8776 14.5 8.71749 14.5 9.73533V12.9788C14.5 14.0811 15.3954 14.9747 16.5 14.9747C17.6046 14.9747 18.5 14.0811 18.5 12.9788V9.73533C18.5 9.10502 18.2072 8.54294 17.75 8.17715ZM17 12.9788V9.73533C17 9.45975 16.7761 9.23635 16.5 9.23635C16.2239 9.23635 16 9.45975 16 9.73533V12.9788C16 13.2543 16.2239 13.4777 16.5 13.4777C16.7761 13.4777 17 13.2543 17 12.9788Z" fill="currentColor"/>
<path d="M4.25002 7.28993C4.25002 5.29355 5.3788 3.46878 7.16515 2.57741L7.83488 3.9196C6.55731 4.55709 5.75002 5.86214 5.75002 7.28993V15.4187L4.75395 15.9652C4.7756 16.7086 4.88759 17.4633 5.12641 18.1183C5.39356 18.851 5.80026 19.4113 6.37154 19.7371L6.40576 19.7566L6.62752 19.916C6.65401 19.9236 6.72674 19.9439 6.86379 19.9628C7.04369 19.9877 7.26744 20.0016 7.5 20.0016C7.73256 20.0016 7.95631 19.9877 8.13621 19.9628C8.27326 19.9439 8.34599 19.9236 8.37248 19.916L8.59424 19.7566L8.62846 19.7371C9.19974 19.4113 9.60645 18.851 9.8736 18.1183C10.1124 17.4633 10.2244 16.7086 10.2461 15.9652L9.25002 15.4187V10.9828C9.25002 9.98838 9.82941 9.16802 10.5203 8.62782C11.2141 8.08527 12.1236 7.73789 13 7.73789H13.75V12.9788C13.75 14.4922 14.9798 15.7217 16.5 15.7217C18.0202 15.7217 19.25 14.4922 19.25 12.9788V8.48789H20.75V12.9788C20.75 15.3235 18.8458 17.2217 16.5 17.2217C14.1542 17.2217 12.25 15.3235 12.25 12.9788V9.37284C11.9665 9.4708 11.6873 9.61936 11.4442 9.80946C10.9803 10.1723 10.75 10.5994 10.75 10.9828V14.5308L11.0625 14.7023C11.1305 14.7395 11.2798 14.8214 11.4113 14.9433C11.5572 15.0786 11.75 15.3279 11.75 15.692C11.75 16.6346 11.6292 17.6821 11.2828 18.6321C10.9398 19.573 10.3569 20.4642 9.4075 21.0194L9.15576 21.2003L9.12154 21.2198C8.88097 21.357 8.57419 21.4165 8.34155 21.4487C8.07948 21.4849 7.78533 21.5016 7.5 21.5016C7.21467 21.5016 6.92052 21.4849 6.65845 21.4487C6.42581 21.4165 6.11903 21.357 5.87846 21.2198L5.84424 21.2003L5.5925 21.0194C4.64313 20.4642 4.06022 19.573 3.71716 18.6321C3.37079 17.6821 3.25 16.6346 3.25 15.692C3.25 15.3279 3.4428 15.0786 3.58872 14.9433C3.72022 14.8214 3.86954 14.7395 3.93748 14.7023L4.25002 14.5308V7.28993Z" fill="currentColor"/>
</svg>
