<svg width="24" height="24" viewBox="0 0 24 24" fill="none" xmlns="http://www.w3.org/2000/svg">
<path d="M10.9371 4.46715C10.9152 4.06433 10.8796 3.42404 10.6159 2.9112C10.4698 2.62707 10.2402 2.35083 9.8883 2.17584C9.54088 2.00309 9.14931 1.96634 8.74294 2.0223C8.37445 2.07304 8.04269 2.22247 7.77973 2.47721C7.52254 2.72638 7.37247 3.03596 7.29082 3.34545C7.1331 3.94335 7.20195 4.64589 7.3585 5.30647C7.67564 6.64476 8.44475 8.18391 9.31212 9.23403C9.45403 9.40584 9.55765 9.63064 9.62488 9.86628C9.69226 10.1024 9.71132 10.3081 9.71132 10.4055V10.4737L11.2113 10.8049V10.4055C11.2113 9.97176 11.0749 9.0128 10.4686 8.27878C9.7469 7.405 9.08196 6.07411 8.81807 4.96058C8.6841 4.39524 8.67569 3.97642 8.74121 3.72806C8.77119 3.61442 8.80786 3.56965 8.82344 3.55455C8.83327 3.54504 8.86031 3.52029 8.94756 3.50828C9.14069 3.48168 9.2109 3.51422 9.22042 3.51895C9.22628 3.52182 9.24889 3.53285 9.28191 3.59707C9.37621 3.78049 9.41451 4.09265 9.43989 4.55882L9.44447 4.64531C9.45389 4.82537 9.46461 5.03027 9.48731 5.20833C9.50969 5.38392 9.55959 5.70805 9.75929 5.96754C9.8787 6.12272 10.0574 6.26295 10.2978 6.32162C10.5253 6.37713 10.7339 6.3414 10.8925 6.28833C11.1856 6.19026 11.4675 5.97847 11.7312 5.74352C11.7517 5.72528 11.7648 5.71802 11.7707 5.71509C11.7767 5.71212 11.7841 5.70923 11.7969 5.7065C11.8328 5.69881 11.8779 5.69653 12.0055 5.6984L12.0142 5.69925C12.0224 5.70392 12.0426 5.71687 12.076 5.74664C12.3397 5.98155 12.6216 6.19333 12.9147 6.29138C13.0733 6.34445 13.2818 6.38018 13.5093 6.32467C13.7497 6.266 13.9284 6.12577 14.0478 5.9706C14.2475 5.71113 14.2974 5.38702 14.3198 5.21146C14.3425 5.03343 14.3532 4.82859 14.3626 4.64855L14.3672 4.56205C14.3926 4.09596 14.4309 3.78388 14.5251 3.60052C14.5581 3.53635 14.5802 3.52557 14.5861 3.52271C14.5955 3.518 14.6662 3.48523 14.8593 3.51181C14.9428 3.52332 14.9643 3.54566 14.968 3.54947C14.9766 3.55804 15.0101 3.59659 15.0357 3.70806C15.0921 3.95385 15.0699 4.37292 14.9171 4.94226C14.6171 6.06033 13.9131 7.39924 13.1845 8.28129C12.5783 9.01521 12.4419 9.97405 12.4419 10.4077L12.4419 10.7818L13.9419 10.4506V10.4077C13.9419 10.3103 13.961 10.1047 14.0283 9.86864C14.0956 9.63304 14.1992 9.4083 14.341 9.23654C15.2013 8.19503 16.008 6.66438 16.3659 5.33105C16.542 4.67468 16.6355 3.97258 16.4976 3.37226C16.426 3.06068 16.2845 2.74459 16.0288 2.48895C15.767 2.22726 15.433 2.07666 15.0639 2.02584C14.6576 1.96989 14.2661 2.00662 13.9187 2.17937C13.5668 2.35434 13.3372 2.63055 13.1911 2.91465C12.9282 3.42593 12.8921 4.06389 12.8701 4.46684C12.7117 4.35903 12.5558 4.29044 12.4002 4.24942C12.3168 4.21738 12.2262 4.19982 12.1314 4.19982C12.1094 4.19982 12.0863 4.1995 12.058 4.19904C11.9779 4.19564 11.88 4.19699 11.819 4.19784C11.7998 4.1981 11.7843 4.19832 11.7741 4.19832C11.7142 4.19832 11.656 4.20532 11.6003 4.21856C11.4004 4.24776 11.1695 4.31518 10.9371 4.46715Z" fill="currentColor"/>
<path d="M9.71131 22.0018L9.71131 18.7022L11.2113 17.2669L11.2113 22.0018H9.71131Z" fill="currentColor"/>
<path d="M12.4419 22.0018L12.4419 17.3673L13.9419 18.8026L13.9419 22.0018H12.4419Z" fill="currentColor"/>
<path d="M5.86464 4.83502C6.44909 5.20408 6.90988 5.85951 7.24375 6.69076C7.33082 6.90756 7.41437 7.13678 7.5007 7.3736C7.77771 8.13353 8.08328 8.97182 8.6254 9.72961C9.28606 10.6531 10.272 11.3966 12 11.3966V12.8966C9.72128 12.8966 8.30653 11.8619 7.40543 10.6024C6.72925 9.65716 6.32601 8.54354 6.04629 7.77103C5.97409 7.57165 5.91013 7.39499 5.85182 7.24981C5.58212 6.57833 5.28167 6.24093 5.06375 6.10332C4.88593 5.99103 4.76225 6.00126 4.63129 6.07661C4.45439 6.17839 4.19569 6.45286 3.97942 7.03309C3.76779 7.60085 3.62207 8.39881 3.62207 9.43173V14.9016C3.62207 15.248 3.69701 16.0677 4.07126 16.7717C4.41792 17.4238 5.01164 17.9805 6.17628 17.9805C6.76182 17.9805 7.13696 17.824 7.43606 17.6072C7.7588 17.3734 8.015 17.0582 8.35527 16.6396L8.38226 16.6064C8.71438 16.1979 9.12476 15.6992 9.70077 15.3187C10.299 14.9234 11.0355 14.6785 12 14.6785V16.1785C11.3123 16.1785 10.8665 16.3463 10.5277 16.5702C10.1666 16.8087 9.88517 17.1356 9.54612 17.5526L9.48113 17.6327C9.17584 18.0096 8.80425 18.4682 8.3162 18.8219C7.76086 19.2243 7.07762 19.4805 6.17628 19.4805C4.36716 19.4805 3.30878 18.533 2.74677 17.4758C2.21236 16.4705 2.12207 15.3756 2.12207 14.9016V9.43173C2.12207 8.26808 2.28493 7.2844 2.57388 6.50919C2.85819 5.74644 3.29208 5.11658 3.88322 4.77646C4.5203 4.4099 5.2401 4.44064 5.86464 4.83502Z" fill="currentColor"/>
<path d="M18.1354 4.83502C17.5509 5.20408 17.0901 5.85951 16.7563 6.69076C16.6692 6.90756 16.5856 7.13678 16.4993 7.3736C16.2223 8.13353 15.9167 8.97182 15.3746 9.72961C14.7139 10.6531 13.7279 11.3966 12 11.3966V12.8966C14.2786 12.8966 15.6935 11.8619 16.5946 10.6024C17.2708 9.65716 17.674 8.54355 17.9537 7.77103C18.0259 7.57166 18.0899 7.39499 18.1482 7.24981C18.4179 6.57833 18.7183 6.24093 18.9362 6.10332C19.1141 5.99103 19.2377 6.00126 19.3687 6.07661C19.5456 6.17839 19.8043 6.45286 20.0206 7.03309C20.2322 7.60085 20.3779 8.39881 20.3779 9.43173V14.9016C20.3779 15.248 20.303 16.0677 19.9287 16.7717C19.5821 17.4238 18.9884 17.9805 17.8237 17.9805C17.2382 17.9805 16.863 17.824 16.5639 17.6072C16.2412 17.3734 15.985 17.0582 15.6447 16.6396L15.6177 16.6064C15.2856 16.1979 14.8752 15.6992 14.2992 15.3187C13.701 14.9234 12.9644 14.6785 12 14.6785V16.1785C12.6877 16.1785 13.1335 16.3463 13.4723 16.5702C13.8334 16.8087 14.1148 17.1356 14.4539 17.5526L14.5189 17.6327C14.8242 18.0096 15.1958 18.4682 15.6838 18.8219C16.2391 19.2243 16.9224 19.4805 17.8237 19.4805C19.6328 19.4805 20.6912 18.533 21.2532 17.4758C21.7876 16.4705 21.8779 15.3756 21.8779 14.9016V9.43173C21.8779 8.26808 21.7151 7.2844 21.4261 6.50919C21.1418 5.74644 20.7079 5.11658 20.1168 4.77646C19.4797 4.4099 18.7599 4.44064 18.1354 4.83502Z" fill="currentColor"/>
<path d="M5.03369 10.0009C5.44791 10.0009 5.78369 9.66507 5.78369 9.25085C5.78369 8.83664 5.44791 8.50085 5.03369 8.50085C4.61948 8.50085 4.28369 8.83664 4.28369 9.25085C4.28369 9.66507 4.61948 10.0009 5.03369 10.0009Z" fill="currentColor"/>
<path d="M7.00269 12.2505C7.00269 12.6647 6.6669 13.0005 6.25269 13.0005C5.83847 13.0005 5.50269 12.6647 5.50269 12.2505C5.50269 11.8363 5.83847 11.5005 6.25269 11.5005C6.6669 11.5005 7.00269 11.8363 7.00269 12.2505Z" fill="currentColor"/>
<path d="M8.75 14.855C9.16421 14.855 9.5 14.5192 9.5 14.105C9.5 13.6908 9.16421 13.355 8.75 13.355C8.33579 13.355 8 13.6908 8 14.105C8 14.5192 8.33579 14.855 8.75 14.855Z" fill="currentColor"/>
<path d="M16.0044 14.105C16.0044 14.5192 15.6686 14.855 15.2544 14.855C14.8402 14.855 14.5044 14.5192 14.5044 14.105C14.5044 13.6908 14.8402 13.355 15.2544 13.355C15.6686 13.355 16.0044 13.6908 16.0044 14.105Z" fill="currentColor"/>
<path d="M5.03369 16C5.44791 16 5.78369 15.6642 5.78369 15.25C5.78369 14.8358 5.44791 14.5 5.03369 14.5C4.61948 14.5 4.28369 14.8358 4.28369 15.25C4.28369 15.6642 4.61948 16 5.03369 16Z" fill="currentColor"/>
<path d="M18.1794 9.25085C18.1794 9.66507 18.5152 10.0009 18.9294 10.0009C19.3437 10.0009 19.6794 9.66507 19.6794 9.25085C19.6794 8.83664 19.3437 8.50085 18.9294 8.50085C18.5152 8.50085 18.1794 8.83664 18.1794 9.25085Z" fill="currentColor"/>
<path d="M17.7104 13.0005C17.2962 13.0005 16.9604 12.6647 16.9604 12.2505C16.9604 11.8363 17.2962 11.5005 17.7104 11.5005C18.1247 11.5005 18.4604 11.8363 18.4604 12.2505C18.4604 12.6647 18.1247 13.0005 17.7104 13.0005Z" fill="currentColor"/>
<path d="M18.1794 15.25C18.1794 15.6642 18.5152 16 18.9294 16C19.3437 16 19.6794 15.6642 19.6794 15.25C19.6794 14.8358 19.3437 14.5 18.9294 14.5C18.5152 14.5 18.1794 14.8358 18.1794 15.25Z" fill="currentColor"/>
</svg>
