<svg width="24" height="24" viewBox="0 0 24 24" fill="none" xmlns="http://www.w3.org/2000/svg">
<path d="M10.4697 10.2561L12.473 2.24252L10.5328 1.75745L8.53441 9.75084C8.40247 10.2502 8.32793 10.6811 8.33442 11.1099C8.34106 11.5484 8.43177 11.9226 8.54788 12.2965L8.57197 12.3741L10.7148 16.6647L9.19226 17.7H7.06777C6.18002 17.7 5.42264 18.4982 5.61411 19.4553C5.68614 19.8154 5.80834 20.3311 5.99858 20.7772C6.09207 20.9964 6.22711 21.2599 6.42426 21.4841C6.62009 21.7068 6.97893 22 7.50006 22H10.0001C10.2481 22 10.551 21.9391 10.7758 21.8911C10.9336 21.8574 11.1174 21.8149 11.3005 21.7726C11.4044 21.7486 11.5085 21.7245 11.607 21.7022C12.2361 21.56 12.7024 21.48 12.9234 21.497C13.0826 21.5093 13.3266 21.5841 13.7298 21.7173L13.7316 21.7179C13.9059 21.7755 14.1107 21.8431 14.3069 21.8951C14.495 21.945 14.7439 22 15.0001 22C15.4974 22 16.1324 21.7819 16.5822 21.3321C16.8261 21.0882 17.0399 20.7502 17.1115 20.3206C17.1835 19.8883 17.0961 19.4559 16.8945 19.0528C16.5932 18.4501 16.2586 18.0254 15.9643 17.6877C15.8639 17.5724 15.7792 17.4783 15.7058 17.3968C15.6297 17.3122 15.5656 17.2411 15.5086 17.1736C15.5192 16.8753 15.6626 16.6128 15.7992 16.3627C15.9079 16.1635 16.0123 15.9723 16.0421 15.7771C16.076 15.5541 16.1108 15.326 16.1409 15.0753C16.2421 14.2314 16.2398 13.3619 15.8318 12.1749C15.6617 11.6801 15.3786 11.1202 15.1594 10.7147C15.1311 10.6625 15.1035 10.612 15.0767 10.5636C15.2608 10.3115 15.4401 10.0668 15.6146 9.82874C17.8026 6.8429 18.851 4.88931 19.4738 2.22781L17.5264 1.77215C17.0021 4.01269 16.219 5.60905 13.9747 8.68066C13.6927 9.06664 13.3937 9.47592 13.0768 9.9127C12.8398 10.2392 12.8224 10.6762 13.0324 11.0207L13.0333 11.0222L13.0382 11.0303L13.0589 11.0648C13.0773 11.0956 13.1045 11.1414 13.1382 11.1993C13.2058 11.3155 13.2988 11.4787 13.4 11.6659C13.6098 12.054 13.8267 12.494 13.9405 12.8251C14.2307 13.6693 14.2284 14.2258 14.1551 14.8371C14.1366 14.9912 14.1104 15.1632 14.0816 15.3527C14.0483 15.5714 13.9541 15.8134 13.851 16.0779C13.688 16.4965 13.5029 16.9715 13.5029 17.5C13.5029 17.6974 13.5613 17.8904 13.6708 18.0547C13.8596 18.3378 14.1063 18.6114 14.3025 18.8291C14.3588 18.8915 14.4111 18.9495 14.4565 19.0016C14.6882 19.2675 14.907 19.5498 15.1056 19.9472L15.1105 19.9572C15.0969 19.9644 15.082 19.9714 15.0662 19.9778C15.0405 19.988 15.0176 19.9945 15.0011 19.998L14.9946 19.9993C14.9778 19.9973 14.9243 19.9897 14.8195 19.9619C14.6906 19.9278 14.5428 19.8796 14.357 19.8182L14.2987 19.7989C13.9795 19.693 13.5062 19.536 13.0768 19.5029C12.495 19.4582 11.7113 19.6282 11.1661 19.7514C11.0436 19.7791 10.9299 19.8054 10.8228 19.8302C10.6546 19.8692 10.5024 19.9044 10.3579 19.9352C10.2445 19.9595 10.1534 19.9771 10.0825 19.9884C10.0204 19.9983 9.99414 20 9.99414 20H7.84144L7.83826 19.9926C7.80097 19.9051 7.76579 19.8058 7.73308 19.7H9.80784L12.5624 17.8269C12.9764 17.5454 13.1184 17.0011 12.8947 16.5532L10.4352 11.6285C10.3623 11.3826 10.3365 11.2306 10.3342 11.0796C10.3316 10.906 10.3596 10.6714 10.4697 10.2561Z" fill="currentColor"/>
<path d="M12.6475 3.64209C12.6475 4.03735 12.9538 4.3612 13.3418 4.39001C13.2764 4.44181 13.2122 4.5004 13.1499 4.56656C12.7796 4.95961 12.6418 5.44456 12.6289 5.85671C12.6168 6.24097 12.7111 6.68641 12.9692 7.00348C13.2307 7.32469 13.7032 7.37309 14.0244 7.11157C14.3377 6.85647 14.3914 6.40072 14.1512 6.08036C14.1494 6.07556 14.1471 6.06853 14.1444 6.05902C14.1342 6.02164 14.1262 5.96714 14.1282 5.90375C14.1322 5.77355 14.1747 5.66627 14.2417 5.5951C14.2865 5.5476 14.3357 5.52647 14.4267 5.52554C14.5344 5.52445 14.6378 5.5541 14.7274 5.58138C15.1237 5.70196 15.5427 5.47846 15.6633 5.08219C15.7839 4.68591 15.5604 4.26692 15.1641 4.14634L15.1474 4.14111C15.1044 4.12745 15.0122 4.09821 14.8864 4.07256C14.8539 3.84531 14.7672 3.58434 14.5635 3.35559C14.2645 3.01966 13.8395 2.89209 13.3975 2.89209C12.9833 2.89209 12.6475 3.22788 12.6475 3.64209Z" fill="currentColor"/>
<path d="M13.0794 7.85225C12.7832 7.56279 12.2861 7.59132 11.9966 7.88761C11.984 7.90078 11.9667 7.91924 11.9455 7.942C11.9034 7.98727 11.8456 8.05086 11.7823 8.12466C11.6676 8.25815 11.4903 8.47565 11.3759 8.69188C11.3031 8.82949 11.2337 8.98554 11.1833 9.12892C11.1584 9.19966 11.1327 9.2825 11.1152 9.36739L11.1147 9.37012C11.104 9.42168 11.0665 9.60307 11.1194 9.80319C11.2254 10.2036 11.6359 10.4423 12.0364 10.3363C12.3634 10.2498 12.5826 9.96003 12.5942 9.63857L12.5983 9.62656C12.6218 9.55973 12.6603 9.47173 12.7017 9.39343C12.7318 9.33656 12.8127 9.2271 12.9202 9.1019C12.9679 9.04636 13.0122 8.99768 13.0444 8.963C13.0604 8.9458 13.0731 8.93237 13.0814 8.92365L13.0904 8.91429L13.0922 8.91245C13.3813 8.61613 13.3756 8.14158 13.0794 7.85225Z" fill="currentColor"/>
<path d="M12.5697 11.4759C12.2803 11.1796 11.8054 11.1741 11.5091 11.4635C11.213 11.7529 11.2073 12.2274 11.4964 12.5237L11.4982 12.5256L11.5072 12.5349C11.5155 12.5436 11.5282 12.5571 11.5442 12.5743C11.5764 12.6089 11.6206 12.6576 11.6683 12.7132C11.7759 12.8384 11.8568 12.9478 11.8869 13.0047C11.9283 13.083 11.9668 13.171 11.9903 13.2378L11.9944 13.2498C12.006 13.5713 12.2252 13.861 12.5522 13.9476C12.9526 14.0536 13.3632 13.8149 13.4691 13.4145C13.5221 13.2143 13.4846 13.0329 13.4739 12.9814L13.4734 12.9787C13.4559 12.8938 13.4302 12.8109 13.4053 12.7402C13.3549 12.5968 13.2855 12.4408 13.2127 12.3032C13.0983 12.0869 12.921 11.8694 12.8063 11.7359C12.7429 11.6621 12.6851 11.5985 12.6431 11.5533C12.6219 11.5305 12.6045 11.5121 12.5919 11.4989L12.5768 11.4831L12.5722 11.4784L12.5697 11.4759Z" fill="currentColor"/>
</svg>
