<svg xmlns="http://www.w3.org/2000/svg" viewBox="0 0 128 128" fill="none" stroke="#000" stroke-width="5" stroke-linejoin="round" stroke-linecap="round"><path d="M90 55a1 1 90 0018 0A1 1 90 0090 55m24 34q1-11-6-22-10 5-18-1l-2 5M64 67a1 1 90 000-38 1 1 90 000 38M89 97q0-15-6-23-19 11-38 0-6 8-6 23M20 56a1 1 90 0018-2A1 1 90 0020 56M40 71l-2-5q-7 6-18 1-7 11-6 22M45 49q8-7 10-11 0 6 11 12-6-11-4-16 7 3 7 11 3-5 2-9 7 9 12 13 1 13 0 17-19 14-38 0-1-3 0-17M20 56q4-3 7-8 3 4 6 2 5 6 5 4m52 1q6-10 18 0"/></svg>
