<svg xmlns="http://www.w3.org/2000/svg" width="96" height="96" fill="none" viewBox="0 0 96 96"><path fill="url(#paint0_linear_4303_1230)" d="M71.0557 2C74.0859 2 76.856 3.71206 78.2112 6.42239L94.2251 38.4513C95.3433 40.688 95.3514 43.3189 94.2469 45.5624L83.4318 67.5306C82.0855 70.2652 79.3023 71.9972 76.2542 71.9971L31.0157 71.9959L30.7822 2H71.0557Z"/><path fill="url(#paint1_radial_4303_1230)" d="M71.0557 2C74.0859 2 76.856 3.71206 78.2112 6.42239L94.2251 38.4513C95.3433 40.688 95.3514 43.3189 94.2469 45.5624L83.4318 67.5306C82.0855 70.2652 79.3023 71.9972 76.2542 71.9971L31.0157 71.9959L30.7822 2H71.0557Z"/><path fill="url(#paint2_linear_4303_1230)" d="M71.0557 2C74.0859 2 76.856 3.71206 78.2112 6.42239L94.2251 38.4513C95.3433 40.688 95.3514 43.3189 94.2469 45.5624L83.4318 67.5306C82.0855 70.2652 79.3023 71.9972 76.2542 71.9971L31.0157 71.9959L30.7822 2H71.0557Z"/><path fill="url(#paint3_linear_4303_1230)" d="M22.4 29.2C18.3711 37.2578 18.3711 46.7422 22.4 54.8L39.0557 88.1114C42.7409 95.4819 53.259 95.4819 56.9443 88.1114L73.6 54.7997C77.6289 46.7419 77.6289 37.2574 73.5999 29.1997C63.0521 8.10422 32.9477 8.10445 22.4 29.2Z"/><path fill="url(#paint4_linear_4303_1230)" fill-opacity=".6" d="M64.9999 41.9433C65.0312 51.3321 57.4455 58.9686 48.0567 58.9999C38.6679 59.0312 31.0314 51.4455 31.0001 42.0567C30.9688 32.6679 38.5545 25.0314 47.9433 25.0001C57.3321 24.9688 64.9686 32.5545 64.9999 41.9433Z"/><path fill="url(#paint5_linear_4303_1230)" d="M22.4 29.2C18.3711 37.2578 18.3711 46.7422 22.4 54.8L39.0557 88.1114C42.7409 95.4819 53.259 95.4819 56.9443 88.1114L73.6 54.7997C77.6289 46.7419 77.6289 37.2574 73.5999 29.1997C63.0521 8.10422 32.9477 8.10445 22.4 29.2Z"/><path fill="url(#paint6_linear_4303_1230)" d="M24.9512 2C21.9215 2 19.1517 3.71152 17.7964 6.42118L1.80366 38.3941C0.669187 40.6622 0.677265 43.3338 1.82543 45.595L13.0103 67.622C14.3741 70.3079 17.1311 72 20.1434 72H31.0078L63.7887 6.42297C65.1437 3.71233 67.914 2.00001 70.9444 2.00001L71.4989 2.00001L24.9512 2Z"/><path fill="url(#paint7_linear_4303_1230)" d="M22.4 29.1997C29.6552 14.6896 46.163 10.16 59.1947 15.6111L31.0076 72.0003L30.9998 71.9993L22.4004 54.8004C18.3715 46.7426 18.3711 37.2574 22.4 29.1997Z"/><defs><linearGradient id="paint0_linear_4303_1230" x1="61.937" x2="100.813" y1="7.025" y2="64.291" gradientUnits="userSpaceOnUse"><stop stop-color="#944600"/><stop offset="1" stop-color="#E67505"/></linearGradient><radialGradient id="paint1_radial_4303_1230" cx="0" cy="0" r="1" gradientTransform="translate(48.1363 43.1061) rotate(-0.191073) scale(41.5 41.5)" gradientUnits="userSpaceOnUse"><stop offset=".525" stop-color="#741C06"/><stop offset="1" stop-color="#AE5606" stop-opacity="0"/></radialGradient><linearGradient id="paint2_linear_4303_1230" x1="75.193" x2="57.941" y1="18.805" y2="12.413" gradientUnits="userSpaceOnUse"><stop stop-color="#944600" stop-opacity="0"/><stop offset="1" stop-color="#741C06"/></linearGradient><linearGradient id="paint3_linear_4303_1230" x1="76.272" x2="43.986" y1="26.613" y2="94.878" gradientUnits="userSpaceOnUse"><stop stop-color="#FFCD0F"/><stop offset=".335" stop-color="#FFA43D"/><stop offset=".74" stop-color="#E67505"/><stop offset="1" stop-color="#CA6407"/></linearGradient><linearGradient id="paint4_linear_4303_1230" x1="47.943" x2="48.057" y1="25" y2="59" gradientUnits="userSpaceOnUse"><stop stop-color="#CD3E1D"/><stop offset="1" stop-color="#CD3E1D" stop-opacity="0"/></linearGradient><linearGradient id="paint5_linear_4303_1230" x1="42.965" x2="60.223" y1="40.221" y2="47.731" gradientUnits="userSpaceOnUse"><stop stop-color="#944600"/><stop offset="1" stop-color="#E67505" stop-opacity="0"/></linearGradient><linearGradient id="paint6_linear_4303_1230" x1="31.5" x2="31.753" y1="2.162" y2="78.161" gradientUnits="userSpaceOnUse"><stop stop-color="#FFE994"/><stop offset=".146" stop-color="#FFCD0F"/><stop offset="1" stop-color="#FFA43D"/></linearGradient><linearGradient id="paint7_linear_4303_1230" x1="45.556" x2="29.628" y1="10.139" y2="81.642" gradientUnits="userSpaceOnUse"><stop stop-color="#FFC205"/><stop offset="1" stop-color="#FF921F"/></linearGradient></defs></svg>