<svg xmlns="http://www.w3.org/2000/svg" width="96" height="96" fill="none" viewBox="0 0 96 96"><g clip-path="url(#clip0_4303_1230)"><g clip-path="url(#clip1_4303_1230)"><path fill="url(#paint0_linear_4303_1230)" d="M0 48C0 41.3726 5.37258 36 12 36H16V60H12C5.37258 60 0 54.6274 0 48Z"/><path fill="url(#paint1_radial_4303_1230)" d="M0 48C0 41.3726 5.37258 36 12 36H16V60H12C5.37258 60 0 54.6274 0 48Z"/><path fill="url(#paint2_linear_4303_1230)" d="M16 30C16 23.3726 21.3726 18 28 18H32V60H16V30Z"/><path fill="url(#paint3_linear_4303_1230)" fill-opacity=".6" d="M16 30C16 23.3726 21.3726 18 28 18H32V60H16V30Z"/><path fill="url(#paint4_linear_4303_1230)" d="M32 12C32 5.37258 37.3726 0 44 0H48C55 0 60 1.54995 60 1.54995V54C60 57.3137 57.3137 60 54 60H32V12Z"/><path fill="url(#paint5_linear_4303_1230)" fill-opacity=".5" d="M32 12C32 5.37258 37.3726 0 44 0H48C55 0 60 1.54995 60 1.54995V54C60 57.3137 57.3137 60 54 60H32V12Z"/><path fill="url(#paint6_radial_4303_1230)" d="M48 6.00024C48 2.68659 50.6966 -0.038762 53.9844 0.374268C61.3571 1.30072 68.4432 3.93058 74.667 8.08911C82.5606 13.3634 88.7137 20.8602 92.3467 29.6311C95.9796 38.4019 96.9302 48.0535 95.0781 57.3645C93.226 66.6754 88.6541 75.2278 81.9414 81.9407C75.2285 88.6536 66.6753 93.2253 57.3643 95.0774C48.0532 96.9295 38.4017 95.979 29.6309 92.3459C20.8602 88.7129 13.3641 82.5606 8.08984 74.6672C2.81563 66.7738 7.16976e-05 57.4936 0 48.0002C0.000195854 54.6275 5.3727 60.0002 12 60.0002H42C45.3136 60.0002 47.9998 57.3138 48 54.0002V6.00024Z"/><path fill="url(#paint7_radial_4303_1230)" d="M48 6.00024C48 2.68659 50.6966 -0.038762 53.9844 0.374268C61.3571 1.30072 68.4432 3.93058 74.667 8.08911C82.5606 13.3634 88.7137 20.8602 92.3467 29.6311C95.9796 38.4019 96.9302 48.0535 95.0781 57.3645C93.226 66.6754 88.6541 75.2278 81.9414 81.9407C75.2285 88.6536 66.6753 93.2253 57.3643 95.0774C48.0532 96.9295 38.4017 95.979 29.6309 92.3459C20.8602 88.7129 13.3641 82.5606 8.08984 74.6672C2.81563 66.7738 7.16976e-05 57.4936 0 48.0002C0.000195854 54.6275 5.3727 60.0002 12 60.0002H42C45.3136 60.0002 47.9998 57.3138 48 54.0002V6.00024Z"/><path fill="url(#paint8_radial_4303_1230)" d="M96 48C96 41.3726 90.6274 36 84 36H48V54C48 57.3137 45.3137 60 42 60H40H84C90.6274 60 96 54.6274 96 48Z" opacity=".6"/></g></g><defs><linearGradient id="paint0_linear_4303_1230" x1=".228" x2="15.926" y1="52.486" y2="53.85" gradientUnits="userSpaceOnUse"><stop stop-color="#1B44B1"/><stop offset="1" stop-color="#102784"/></linearGradient><radialGradient id="paint1_radial_4303_1230" cx="0" cy="0" r="1" gradientTransform="translate(5.5 36) rotate(90) scale(24 17.6815)" gradientUnits="userSpaceOnUse"><stop offset=".579" stop-color="#102784" stop-opacity="0"/><stop offset="1" stop-color="#102784"/></radialGradient><linearGradient id="paint2_linear_4303_1230" x1="24" x2="24" y1="18" y2="60" gradientUnits="userSpaceOnUse"><stop stop-color="#0094F0"/><stop offset=".776" stop-color="#2052CB"/><stop offset="1" stop-color="#163697"/></linearGradient><linearGradient id="paint3_linear_4303_1230" x1="24" x2="32.005" y1="45" y2="44.605" gradientUnits="userSpaceOnUse"><stop stop-color="#0078D4" stop-opacity="0"/><stop offset="1" stop-color="#2052CB"/></linearGradient><linearGradient id="paint4_linear_4303_1230" x1="40" x2="40" y1="0" y2="60" gradientUnits="userSpaceOnUse"><stop stop-color="#26CFE8"/><stop offset=".409" stop-color="#0FAFFF"/><stop offset=".81" stop-color="#367AF2"/><stop offset="1" stop-color="#2052CB"/></linearGradient><linearGradient id="paint5_linear_4303_1230" x1="40.889" x2="48.889" y1="34.5" y2="34.5" gradientUnits="userSpaceOnUse"><stop stop-color="#0094F0" stop-opacity="0"/><stop offset="1" stop-color="#2764E7"/></linearGradient><radialGradient id="paint6_radial_4303_1230" cx="0" cy="0" r="1" gradientTransform="translate(63.3122 13.9524) rotate(90) scale(89.1508 89.1508)" gradientUnits="userSpaceOnUse"><stop offset=".062" stop-color="#6FE8F5"/><stop offset=".288" stop-color="#3BD5FF"/><stop offset=".681" stop-color="#0094F0"/><stop offset="1" stop-color="#2052CB"/></radialGradient><radialGradient id="paint7_radial_4303_1230" cx="0" cy="0" r="1" gradientTransform="translate(41 63.9998) rotate(-90) scale(68)" gradientUnits="userSpaceOnUse"><stop offset=".542" stop-color="#29C3FF" stop-opacity="0"/><stop offset="1" stop-color="#73EDD8"/></radialGradient><radialGradient id="paint8_radial_4303_1230" cx="0" cy="0" r="1" gradientTransform="translate(46 60) scale(62 62)" gradientUnits="userSpaceOnUse"><stop offset=".459" stop-color="#3BD5FF"/><stop offset="1" stop-color="#3BD5FF" stop-opacity="0"/></radialGradient><clipPath id="clip0_4303_1230"><rect width="96" height="96" fill="#fff"/></clipPath><clipPath id="clip1_4303_1230"><rect width="96" height="96" fill="#fff"/></clipPath></defs></svg>