<svg xmlns="http://www.w3.org/2000/svg" width="512" height="512" fill="none" viewBox="0 0 512 512"><title>AskVerdict — 3D / Apple-style</title><defs><linearGradient id="g" x1="50%" x2="50%" y1="0%" y2="100%"><stop offset="0%" stop-color="#FAD460"/><stop offset="45%" stop-color="#E8A317"/><stop offset="100%" stop-color="#B8751A"/></linearGradient><linearGradient id="bg" x1="50%" x2="50%" y1="0%" y2="100%"><stop offset="0%" stop-color="#1e1a0e"/><stop offset="100%" stop-color="#080808"/></linearGradient><linearGradient id="gloss" x1="0%" x2="0%" y1="0%" y2="100%"><stop offset="0%" stop-color="#fff" stop-opacity=".14"/><stop offset="100%" stop-color="#fff" stop-opacity="0"/></linearGradient></defs><rect width="512" height="512" fill="url(#bg)" rx="110"/><rect width="512" height="180" fill="url(#gloss)" rx="110"/><path fill="url(#g)" fill-opacity=".7" d="M256 73 L96 170 L256 266 Z"/><path fill="url(#g)" d="M256 73 L416 170 L256 266 Z"/><path fill="#0a0800" fill-opacity=".52" d="M256 140 L309 191 L279 191 L256 165 L231 191 L201 191 Z"/><path fill="url(#g)" fill-opacity=".82" d="M96 296 L256 359 L416 296 L416 333 L256 396 L96 333 Z"/><path fill="url(#g)" fill-opacity=".62" d="M113 359 L256 417 L399 359 L399 392 L256 443 L113 392 Z"/></svg>