<svg xmlns="http://www.w3.org/2000/svg" viewBox="0 0 24 24"><title>Luma</title><path fill="#000" d="M2 5.999L12.392 0v24L2 18V5.999z"/><path fill="url(#grad-a)" d="M12.392 24L2 18l10.392-6 10.393 6-10.393 6z"/><path fill="url(#grad-b)" d="M12.392 24L2 18l10.392-6 10.393 6-10.393 6z"/><path fill="url(#grad-c)" d="M2 5.999L12.392 0v24L2 18V5.999z"/><path fill="url(#grad-d)" d="M12.392 24L2 18l10.392-6 10.393 6-10.393 6z"/><path fill="url(#grad-e)" d="M2 5.999L12.392 0v24L2 18V5.999z"/><defs><linearGradient id="grad-a" x1="2" x2="22.785" y1="18" y2="18" gradientUnits="userSpaceOnUse"><stop stop-color="#00A"/><stop offset="1" stop-color="#A78DFF"/></linearGradient><linearGradient id="grad-b" x1="2" x2="22.785" y1="18" y2="18" gradientUnits="userSpaceOnUse"><stop stop-color="#00A"/><stop offset="1" stop-color="#A78DFF"/></linearGradient><linearGradient id="grad-c" x1="13.748" x2="4.672" y1="22.642" y2="3.745" gradientUnits="userSpaceOnUse"><stop stop-color="#004EFF"/><stop offset="1" stop-color="#0FF"/></linearGradient><linearGradient id="grad-d" x1="2" x2="22.785" y1="18" y2="18" gradientUnits="userSpaceOnUse"><stop stop-color="#00A"/><stop offset="1" stop-color="#A78DFF"/></linearGradient><linearGradient id="grad-e" x1="13.748" x2="4.672" y1="22.642" y2="3.745" gradientUnits="userSpaceOnUse"><stop stop-color="#004EFF"/><stop offset="1" stop-color="#0FF"/></linearGradient></defs></svg>