<svg xmlns="http://www.w3.org/2000/svg" fill="#ff4f40" viewBox="0 0 16 16"><title>MimiClaw</title><rect width="6" height="1" x="5" y="3"/><rect width="8" height="1" x="4" y="4"/><rect width="10" height="1" x="3" y="5"/><rect width="10" height="1" x="3" y="6"/><rect width="10" height="1" x="3" y="7"/><rect width="8" height="1" x="4" y="8"/><rect width="6" height="1" x="5" y="9"/><rect width="6" height="1" x="5" y="12"/><rect width="4" height="1" x="6" y="13"/><rect width="2" height="1" x="1" y="6" fill="#ff775f"/><rect width="1" height="1" x="2" y="5" fill="#ff775f"/><rect width="1" height="1" x="2" y="7" fill="#ff775f"/><rect width="2" height="1" x="13" y="6" fill="#ff775f"/><rect width="1" height="1" x="13" y="5" fill="#ff775f"/><rect width="1" height="1" x="13" y="7" fill="#ff775f"/><rect width="1" height="1" x="6" y="4" fill="#f5fbff"/><rect width="1" height="1" x="9" y="4" fill="#f5fbff"/><rect width="1" height="1" x="6" y="5" fill="#081016"/><rect width="1" height="1" x="9" y="5" fill="#081016"/></svg>