<svg xmlns="http://www.w3.org/2000/svg" fill="#f43f5e" viewBox="0 0 24 24"><title>profClaw</title><ellipse cx="12" cy="13" rx="5.76" ry="5.28"/><ellipse cx="11.52" cy="11.76" fill="#fda4af" opacity=".15" rx="3.12" ry="2.16"/><rect width="1.92" height="2.4" x="9.36" y="17.52" fill="#be123c" rx=".96"/><rect width="1.92" height="2.4" x="12.72" y="17.52" fill="#be123c" rx=".96"/><ellipse cx="4.8" cy="12.96" fill="#be123c" rx="1.92" ry="1.44"/><path fill="none" stroke="#4c0519" stroke-linecap="round" stroke-width=".43" d="M3.6,11.76 L4.8,12.96 L6,11.76"/><ellipse cx="19.2" cy="12.96" fill="#be123c" rx="1.92" ry="1.44"/><path fill="none" stroke="#4c0519" stroke-linecap="round" stroke-width=".43" d="M18,11.76 L19.2,12.96 L20.4,11.76"/><line x1="9.36" x2="7.44" y1="8.16" y2="4.8" stroke="#be123c" stroke-linecap="round" stroke-width=".53"/><circle cx="7.2" cy="4.32" r=".84" fill="#fda4af"/><circle cx="7.2" cy="4.32" r=".31" fill="#fff" opacity=".35"/><line x1="14.64" x2="16.56" y1="8.16" y2="4.8" stroke="#be123c" stroke-linecap="round" stroke-width=".53"/><circle cx="16.8" cy="4.32" r=".84" fill="#fda4af"/><circle cx="16.8" cy="4.32" r=".31" fill="#fff" opacity=".35"/><circle cx="10.32" cy="12.24" r="1.56" fill="#fff"/><circle cx="13.68" cy="12.24" r="1.56" fill="#fff"/><circle cx="10.68" cy="12" r=".84" fill="#4c0519"/><circle cx="14.04" cy="12" r=".84" fill="#4c0519"/><circle cx="11.04" cy="11.64" r=".34" fill="#fff"/><circle cx="14.4" cy="11.64" r=".34" fill="#fff"/><circle cx="10.32" cy="12.6" r=".17" fill="#fff" opacity=".3"/><circle cx="13.68" cy="12.6" r=".17" fill="#fff" opacity=".3"/><path fill="none" stroke="#9f1239" stroke-linecap="round" stroke-width=".48" d="M10.8,15.12 Q12,16.32 13.68,14.88"/></svg>