<svg xmlns="http://www.w3.org/2000/svg" xmlns:xlink="http://www.w3.org/1999/xlink" width="512" height="512" fill="none" viewBox="0 0 512 512"><rect id="«r3b»" width="512" height="512" x="0" y="0" fill="url(#«r3c»)" stroke="#FFF" stroke-opacity="100%" stroke-width="0" paint-order="stroke" rx="128"/><clipPath id="clip"><use xlink:href="#«r3b»"/></clipPath><defs><radialGradient id="«r3c»" cx="50%" cy="50%" r="100%" fx="50%" fy="0%" gradientUnits="objectBoundingBox"><stop stop-color="#232323"/><stop offset="1" stop-color="#000"/></radialGradient><radialGradient id="«r3d»" cx="0" cy="0" r="1" gradientTransform="translate(256) rotate(90) scale(512)" gradientUnits="userSpaceOnUse"><stop stop-color="#fff"/><stop offset="1" stop-color="#fff" stop-opacity="0"/></radialGradient></defs><g fill="snow"><path d="M168,36H88A52.06,52.06,0,0,0,36,88v80a52.06,52.06,0,0,0,52,52h48a3.83,3.83,0,0,0,1.26-.21c25.46-8.48,74.05-57.07,82.53-82.53A3.83,3.83,0,0,0,220,136V88A52.06,52.06,0,0,0,168,36ZM44,168V88A44.05,44.05,0,0,1,88,44h80a44.05,44.05,0,0,1,44,44v44H184a52.06,52.06,0,0,0-52,52v28H88A44.05,44.05,0,0,1,44,168Zm96,42V184a44.05,44.05,0,0,1,44-44h26C198.9,162.23,162.23,198.9,140,210Z" transform="translate(76, 76) scale(1.406250)"/></g></svg>