<svg viewBox="0 0 16 16" xmlns="http://www.w3.org/2000/svg"><path d="m4 7.52v6.4l3.38-2.7c0.365-0.292 0.885-0.292 1.25 0l3.37 2.7v-1.6l1 0.601v2.04c-2e-4 0.419-0.485 0.652-0.812 0.391l-4.19-3.35-4.19 3.35c-0.327 0.262-0.812 0.0284-0.812-0.391v-8.04l1 0.6z" fill="#000"/><path d="m4 7.52v6.4l3.38-2.7c0.365-0.292 0.885-0.292 1.25 0l3.37 2.7v-1.6l1 0.601v2.04c-2e-4 0.419-0.485 0.652-0.812 0.391l-4.19-3.35-4.19 3.35c-0.327 0.262-0.812 0.0284-0.812-0.391v-8.04l1 0.6z" fill="#000"/><path d="m4 7.52v6.4l3.38-2.7c0.365-0.292 0.885-0.292 1.25 0l3.37 2.7v-1.6l1 0.601v2.04c-2e-4 0.419-0.485 0.652-0.812 0.391l-4.19-3.35-4.19 3.35c-0.327 0.262-0.812 0.0284-0.812-0.391v-8.04l1 0.6z" fill="#000"/><path d="m4 7.52v6.4l3.38-2.7c0.365-0.292 0.885-0.292 1.25 0l3.37 2.7v-1.6l1 0.601v2.04c-2e-4 0.419-0.485 0.652-0.812 0.391l-4.19-3.35-4.19 3.35c-0.327 0.262-0.812 0.0284-0.812-0.391v-8.04l1 0.6z" fill="#000"/><path d="m12 2c0.552 1.3e-4 1 0.448 1 1v6.24l2.69 1.6c0.296 0.176 0.394 0.56 0.218 0.856-0.176 0.296-0.56 0.394-0.856 0.218l-14.8-8.75c-0.296-0.176-0.394-0.56-0.218-0.856 0.176-0.296 0.56-0.394 0.856-0.218l2.06 1.22v-0.307c0-0.552 0.448-1 1-1h8zm-8 1.9 8 4.75v-5.65h-8v0.9z" clip-rule="evenodd" fill="#000" fill-rule="evenodd"/><path d="m12 2c0.552 1.3e-4 1 0.448 1 1v6.24l2.69 1.6c0.296 0.176 0.394 0.56 0.218 0.856-0.176 0.296-0.56 0.394-0.856 0.218l-14.8-8.75c-0.296-0.176-0.394-0.56-0.218-0.856 0.176-0.296 0.56-0.394 0.856-0.218l2.06 1.22v-0.307c0-0.552 0.448-1 1-1h8zm-8 1.9 8 4.75v-5.65h-8v0.9z" clip-rule="evenodd" fill="#000" fill-rule="evenodd"/><path d="m12 2c0.552 1.3e-4 1 0.448 1 1v6.24l2.69 1.6c0.296 0.176 0.394 0.56 0.218 0.856-0.176 0.296-0.56 0.394-0.856 0.218l-14.8-8.75c-0.296-0.176-0.394-0.56-0.218-0.856 0.176-0.296 0.56-0.394 0.856-0.218l2.06 1.22v-0.307c0-0.552 0.448-1 1-1h8zm-8 1.9 8 4.75v-5.65h-8v0.9z" clip-rule="evenodd" fill="#000" fill-rule="evenodd"/><path d="m12 2c0.552 1.3e-4 1 0.448 1 1v6.24l2.69 1.6c0.296 0.176 0.394 0.56 0.218 0.856-0.176 0.296-0.56 0.394-0.856 0.218l-14.8-8.75c-0.296-0.176-0.394-0.56-0.218-0.856 0.176-0.296 0.56-0.394 0.856-0.218l2.06 1.22v-0.307c0-0.552 0.448-1 1-1h8zm-8 1.9 8 4.75v-5.65h-8v0.9z" clip-rule="evenodd" fill="#000" fill-rule="evenodd"/></svg>
