<svg viewBox="0 0 16 16" xmlns="http://www.w3.org/2000/svg"><path d="M7 12H5V3H7V12Z" fill="#000"/><path d="m11 12h-2v-9h2v9z" fill="#000"/><path d="m3 12c-0.392-0.0239-0.671-0.0753-0.908-0.196-0.376-0.192-0.682-0.498-0.874-0.874-0.218-0.428-0.218-0.988-0.218-2.11v-2.6c0-1.12-2.14e-4 -1.68 0.218-2.11 0.192-0.376 0.498-0.682 0.874-0.874 0.237-0.121 0.516-0.173 0.908-0.197v8.96z" fill="#000"/><path d="m13 3.02c0.392 0.024 0.671 0.0763 0.908 0.197 0.376 0.192 0.682 0.498 0.874 0.874 0.218 0.428 0.218 0.988 0.218 2.11v2.6c0 1.12 2e-4 1.68-0.218 2.11-0.192 0.376-0.498 0.682-0.874 0.874-0.238 0.121-0.516 0.172-0.908 0.196v-8.96z" fill="#000" opacity=".3"/></svg>
