<svg viewBox="0 0 16 16" xmlns="http://www.w3.org/2000/svg"><path d="m12.7 6.25c0.274-0.31 0.749-0.339 1.06-0.0644 0.31 0.274 0.339 0.748 0.0645 1.06l-5.75 6.5c-0.134 0.152-0.324 0.242-0.526 0.252-0.202 0.0096-0.399-0.0632-0.547-0.201l-3.75-3.5c-0.303-0.282-0.32-0.757-0.0371-1.06 0.283-0.303 0.758-0.32 1.06-0.0371l3.19 2.97 5.24-5.92z" fill="#000"/><path d="m12.7 1.25c0.274-0.31 0.749-0.339 1.06-0.0644 0.31 0.274 0.339 0.748 0.0645 1.06l-5.75 6.5c-0.134 0.152-0.324 0.242-0.526 0.252-0.202 0.00957-0.399-0.0632-0.547-0.201l-3.75-3.5c-0.303-0.283-0.32-0.757-0.0371-1.06 0.283-0.303 0.758-0.32 1.06-0.0371l3.19 2.97 5.24-5.92z" fill="#000"/></svg>
