<svg viewBox="0 0 16 16" xmlns="http://www.w3.org/2000/svg"><path d="m11.8 7.94c0.267 0.936 0.401 1.4 0.654 1.79 0.224 0.34 0.515 0.631 0.854 0.854 0.384 0.253 0.852 0.387 1.79 0.654l0.936 0.268-0.936 0.268c-0.936 0.267-1.4 0.401-1.79 0.654-0.34 0.224-0.631 0.515-0.854 0.854-0.253 0.384-0.387 0.852-0.654 1.79l-0.268 0.936-0.268-0.936c-0.267-0.936-0.401-1.4-0.654-1.79-0.224-0.34-0.515-0.631-0.854-0.854-0.384-0.253-0.852-0.387-1.79-0.654l-0.936-0.268 0.936-0.268c0.936-0.267 1.4-0.401 1.79-0.654 0.34-0.224 0.631-0.515 0.854-0.854 0.253-0.384 0.387-0.852 0.654-1.79l0.268-0.936 0.268 0.936z" fill="#000"/><path d="m7 0c3.87 0 7 3.13 7 7 0 0.383-0.0327 0.758-0.0918 1.12-0.27-0.879-0.373-2.01-1.1-2.64-0.67-2.58-3.02-4.49-5.81-4.49-3.31 0-6 2.69-6 6 0 2.79 1.91 5.14 4.49 5.81 0.248 0.287 0.579 0.505 0.963 0.615l0.937 0.268c0.328 0.0937 0.564 0.165 0.737 0.218-0.366 0.0591-0.741 0.0918-1.12 0.0918-3.87 0-7-3.13-7-7 0-3.87 3.13-7 7-7z" fill="#000"/><path d="m4 8.88c0.211-0.178 0.527-0.151 0.705 0.0596 0.109 0.129 0.228 0.248 0.356 0.356 0.211 0.178 0.238 0.494 0.0596 0.705-0.178 0.211-0.494 0.237-0.705 0.0586-0.171-0.145-0.33-0.304-0.475-0.475-0.178-0.211-0.152-0.527 0.0586-0.705z" fill="#000"/><path d="m3.55 6.21c0.275 0.0229 0.48 0.265 0.457 0.54-0.00693 0.0833-0.0107 0.168-0.0107 0.253s0.00381 0.17 0.0107 0.253c0.0229 0.275-0.182 0.517-0.457 0.54-0.275 0.0229-0.517-0.182-0.54-0.457-0.00923-0.111-0.0137-0.223-0.0137-0.336s0.00444-0.225 0.0137-0.336c0.0229-0.275 0.265-0.48 0.54-0.457z" fill="#000"/><path d="m4.42 3.94c0.211-0.178 0.527-0.152 0.705 0.0586 0.178 0.211 0.151 0.527-0.0596 0.705-0.129 0.109-0.248 0.228-0.356 0.356-0.178 0.211-0.494 0.238-0.705 0.0596-0.211-0.178-0.237-0.494-0.0586-0.705 0.145-0.171 0.303-0.33 0.475-0.475z" fill="#000"/><path d="m8.88 4c0.178-0.211 0.494-0.237 0.705-0.0586 0.171 0.145 0.33 0.303 0.475 0.475 0.178 0.211 0.152 0.527-0.0586 0.705-0.211 0.178-0.527 0.151-0.705-0.0596-0.109-0.129-0.228-0.248-0.356-0.356-0.211-0.178-0.238-0.494-0.0596-0.705z" fill="#000"/><path d="m7.34 3.01c0.275 0.0229 0.48 0.265 0.457 0.54-0.0229 0.275-0.265 0.48-0.54 0.457-0.0833-0.00693-0.168-0.0107-0.253-0.0107s-0.17 0.00381-0.253 0.0107c-0.275 0.0229-0.517-0.182-0.54-0.457-0.0229-0.275 0.182-0.517 0.457-0.54 0.111-0.00923 0.223-0.0137 0.336-0.0137s0.225 0.00444 0.336 0.0137z" fill="#000"/></svg>
