<svg viewBox="0 0 16 16" xmlns="http://www.w3.org/2000/svg"><path d="m7.61 12c0.129 0.0126 0.26 0.0186 0.393 0.0186s0.264-6e-3 0.393-0.0186c0.275-0.0267 0.519 0.174 0.546 0.449 0.0265 0.275-0.175 0.519-0.449 0.546-0.161 0.0156-0.324 0.0234-0.489 0.0234s-0.328-0.0078-0.489-0.0234c-0.275-0.0268-0.476-0.271-0.449-0.546 0.0268-0.275 0.271-0.476 0.546-0.449z" fill="#000"/><path d="m4.2 10.5c0.213-0.175 0.528-0.145 0.703 0.0683 0.166 0.203 0.353 0.389 0.556 0.556 0.213 0.175 0.244 0.49 0.0684 0.703-0.175 0.213-0.49 0.244-0.703 0.0693-0.253-0.208-0.486-0.44-0.693-0.693-0.175-0.213-0.144-0.528 0.0693-0.703z" fill="#000"/><path d="m11.1 10.5c0.175-0.213 0.49-0.244 0.703-0.0683s0.244 0.49 0.0693 0.703c-0.208 0.253-0.44 0.486-0.693 0.693-0.213 0.175-0.528 0.144-0.703-0.0693s-0.145-0.528 0.0683-0.703c0.203-0.166 0.389-0.353 0.556-0.556z" fill="#000"/><path d="m3.57 7.06c0.275 0.0268 0.476 0.271 0.449 0.546-0.0125 0.129-0.0186 0.26-0.0186 0.393s0.00601 0.264 0.0186 0.393c0.0268 0.275-0.174 0.519-0.449 0.546-0.275 0.0265-0.519-0.175-0.546-0.449-0.0157-0.161-0.0234-0.324-0.0234-0.489s0.00777-0.328 0.0234-0.489c0.0267-0.275 0.271-0.476 0.546-0.449z" fill="#000"/><path d="m12.4 7.06c0.275-0.0265 0.519 0.175 0.546 0.449 0.0156 0.161 0.0234 0.324 0.0234 0.489s-0.0078 0.328-0.0234 0.489c-0.0268 0.275-0.271 0.476-0.546 0.449-0.275-0.0268-0.476-0.271-0.449-0.546 0.0126-0.129 0.0186-0.26 0.0186-0.393s-6e-3 -0.264-0.0186-0.393c-0.0267-0.275 0.174-0.519 0.449-0.546z" fill="#000"/><path d="m4.83 4.13c0.213-0.175 0.528-0.144 0.703 0.0693 0.175 0.213 0.145 0.528-0.0684 0.703-0.203 0.166-0.389 0.353-0.556 0.556-0.175 0.213-0.49 0.244-0.703 0.0684-0.213-0.175-0.244-0.49-0.0693-0.703 0.208-0.253 0.44-0.486 0.693-0.693z" fill="#000"/><path d="m10.5 4.2c0.175-0.213 0.49-0.244 0.703-0.0693 0.253 0.208 0.486 0.44 0.693 0.693 0.175 0.213 0.144 0.528-0.0693 0.703-0.213 0.175-0.528 0.145-0.703-0.0684-0.166-0.203-0.353-0.389-0.556-0.556-0.213-0.175-0.244-0.49-0.0683-0.703z" fill="#000"/><path d="m8 3c0.165 0 0.328 0.00777 0.489 0.0234 0.275 0.0267 0.476 0.271 0.449 0.546-0.0268 0.275-0.271 0.476-0.546 0.449-0.129-0.0125-0.26-0.0186-0.393-0.0186s-0.264 0.00601-0.393 0.0186c-0.275 0.0268-0.519-0.174-0.546-0.449-0.0265-0.275 0.175-0.519 0.449-0.546 0.161-0.0157 0.324-0.0234 0.489-0.0234z" fill="#000"/><path d="m8 0c4.42 0 8 3.58 8 8 0 4.42-3.58 8-8 8-4.42 0-8-3.58-8-8 0-4.42 3.58-8 8-8zm0 1c-3.87 0-7 3.13-7 7 0 3.87 3.13 7 7 7 3.87 0 7-3.13 7-7 0-3.87-3.13-7-7-7z" clip-rule="evenodd" fill="#000" fill-rule="evenodd"/></svg>
