<svg viewBox="0 0 16 16" xmlns="http://www.w3.org/2000/svg"><path d="m8 7c0.552 0 1 0.448 1 1 0 0.552-0.448 1-1 1-0.552 0-1-0.448-1-1 0-0.552 0.448-1 1-1z" fill="#000"/><path d="m8 0c0.174 0 0.261 3.63e-4 0.334 0.0137 0.332 0.0609 0.591 0.32 0.652 0.652 0.0133 0.0726 0.0137 0.16 0.0137 0.334v0.0723c3.07 0.439 5.49 2.86 5.93 5.93h0.0723c0.174 0 0.261 3.6e-4 0.334 0.0137 0.332 0.0609 0.592 0.32 0.652 0.652 0.0133 0.0726 0.0137 0.16 0.0137 0.334s-4e-4 0.261-0.0137 0.334c-0.0608 0.332-0.32 0.591-0.652 0.652-0.0726 0.0133-0.16 0.0137-0.334 0.0137h-0.0723c-0.438 3.07-2.86 5.49-5.93 5.93v0.0732c0 0.174-3.6e-4 0.261-0.0137 0.334-0.0609 0.332-0.32 0.592-0.652 0.652-0.0726 0.0133-0.16 0.0137-0.334 0.0137s-0.261-4e-4 -0.334-0.0137c-0.332-0.0608-0.591-0.32-0.652-0.652-0.0133-0.0726-0.0137-0.16-0.0137-0.334v-0.0732c-3.07-0.439-5.49-2.86-5.93-5.93h-0.0723c-0.174 0-0.261-3.6e-4 -0.334-0.0137-0.332-0.0609-0.591-0.32-0.652-0.652-0.0133-0.0726-0.0137-0.16-0.0137-0.334 7.62e-9 -0.174 3.63e-4 -0.261 0.0137-0.334 0.0609-0.332 0.32-0.591 0.652-0.652 0.0726-0.0133 0.16-0.0137 0.334-0.0137h0.0723c0.439-3.07 2.86-5.49 5.93-5.93v-0.0723c0-0.174 3.6e-4 -0.261 0.0137-0.334 0.0609-0.332 0.32-0.591 0.652-0.652 0.0726-0.0133 0.16-0.0137 0.334-0.0137zm0 2c-3.31 0-6 2.69-6 6 0 3.31 2.69 6 6 6 3.31 0 6-2.69 6-6 0-3.31-2.69-6-6-6z" clip-rule="evenodd" fill="#000" fill-rule="evenodd"/></svg>
