<svg fill="none" viewBox="0 0 16 16" xmlns="http://www.w3.org/2000/svg"><path d="m15.1 7.74c0.122-0.198 0.37-0.291 0.597-0.208 0.227 0.0825 0.358 0.312 0.324 0.542l-0.0254 0.0986v9.7e-4l-0.0029 0.00586c-0.0014 0.00374-0.0025 0.00932-0.0049 0.0156-0.0048 0.0126-0.0116 0.0304-0.0205 0.0527-0.0179 0.045-0.0451 0.109-0.0801 0.189-0.0699 0.161-0.175 0.388-0.318 0.658-0.286 0.54-0.728 1.26-1.35 1.98-1.25 1.45-3.25 2.92-6.19 2.92-2.94 0-4.94-1.48-6.19-2.92-0.624-0.722-1.07-1.44-1.35-1.98-0.143-0.27-0.248-0.497-0.318-0.658-0.035-0.0804-0.0622-0.144-0.0801-0.189-0.00888-0.0224-0.0157-0.0401-0.0205-0.0527-0.00239-0.00631-0.00349-0.0119-0.00488-0.0156l-0.00293-0.00586v-9.7e-4c-0.0944-0.26 0.0394-0.546 0.299-0.641 0.26-0.0944 0.546 0.0403 0.641 0.3 5.66e-4 0.00152 0.00243 0.00392 0.00391 0.00781 0.00307 0.00808 0.00767 0.0215 0.0146 0.0391 0.0141 0.0355 0.036 0.0902 0.0664 0.16 0.0609 0.14 0.155 0.343 0.285 0.588 0.261 0.491 0.663 1.15 1.23 1.8 1.12 1.3 2.87 2.58 5.43 2.58 2.56 0 4.31-1.27 5.43-2.58 0.563-0.652 0.965-1.31 1.23-1.8 0.13-0.245 0.224-0.448 0.285-0.588 0.0304-0.07 0.0523-0.125 0.0664-0.16 7e-3 -0.0176 0.0116-0.031 0.0147-0.0391 0.0014-0.00389 0.0033-0.00629 0.0039-0.00781v-9.8e-4l0.0439-0.0908z" fill="#000"/></svg>
