<svg viewBox="0 0 16 16" xmlns="http://www.w3.org/2000/svg"><path d="m0.5 10c0.276 0 0.5 0.224 0.5 0.5v1.8c0 0.568 1.9e-4 0.965 0.0254 1.27 0.0247 0.302 0.0707 0.476 0.138 0.608 0.144 0.282 0.374 0.512 0.656 0.656 0.132 0.067 0.305 0.113 0.607 0.138 0.308 0.0252 0.705 0.0254 1.27 0.0254h1.8c0.276 0 0.5 0.224 0.5 0.5s-0.224 0.5-0.5 0.5h-1.8c-0.552 0-0.996 0-1.35-0.0293-0.364-0.0298-0.684-0.0923-0.98-0.243-0.47-0.24-0.853-0.622-1.09-1.09-0.151-0.296-0.213-0.616-0.243-0.98-0.0293-0.359-0.0293-0.803-0.0293-1.35v-1.8c0-0.276 0.224-0.5 0.5-0.5z" fill="#000"/><path d="m15.5 10c0.276 0 0.5 0.224 0.5 0.5v1.8c0 0.552 0 0.996-0.0293 1.35-0.0298 0.364-0.0923 0.684-0.243 0.98-0.24 0.47-0.622 0.853-1.09 1.09-0.296 0.151-0.616 0.213-0.98 0.243-0.359 0.0293-0.803 0.0293-1.35 0.0293h-1.8c-0.276 0-0.5-0.224-0.5-0.5s0.224-0.5 0.5-0.5h1.8c0.568 0 0.965-2e-4 1.27-0.0254 0.302-0.0247 0.476-0.0707 0.608-0.138 0.282-0.144 0.512-0.374 0.656-0.656 0.067-0.132 0.113-0.305 0.138-0.608 0.0252-0.308 0.0254-0.705 0.0254-1.27v-1.8c0-0.276 0.224-0.5 0.5-0.5z" fill="#000"/><path d="m8 4c2.21 0 4 1.79 4 4 0 2.21-1.79 4-4 4-2.21 0-4-1.79-4-4 0-2.21 1.79-4 4-4zm0 1c-1.66 0-3 1.34-3 3s1.34 3 3 3 3-1.34 3-3-1.34-3-3-3z" clip-rule="evenodd" fill="#000" fill-rule="evenodd"/><path d="m5.5 0c0.276 0 0.5 0.224 0.5 0.5s-0.224 0.5-0.5 0.5h-1.8c-0.568 0-0.965 1.9e-4 -1.27 0.0254-0.302 0.0247-0.476 0.0707-0.607 0.138-0.282 0.144-0.512 0.374-0.656 0.656-0.067 0.132-0.113 0.305-0.138 0.607-0.0252 0.308-0.0254 0.705-0.0254 1.27v1.8c0 0.276-0.224 0.5-0.5 0.5s-0.5-0.224-0.5-0.5v-1.8c0-0.552-8.94e-7 -0.996 0.0293-1.35 0.0298-0.364 0.0923-0.684 0.243-0.98 0.24-0.47 0.622-0.853 1.09-1.09 0.296-0.151 0.616-0.213 0.98-0.243 0.359-0.0293 0.803-0.0293 1.35-0.0293h1.8z" fill="#000"/><path d="m12.3 0c0.552 0 0.996-8.94e-7 1.35 0.0293 0.364 0.0298 0.684 0.0923 0.98 0.243 0.47 0.24 0.853 0.622 1.09 1.09 0.151 0.296 0.213 0.616 0.243 0.98 0.0293 0.359 0.0293 0.803 0.0293 1.35v1.8c0 0.276-0.224 0.5-0.5 0.5s-0.5-0.224-0.5-0.5v-1.8c0-0.568-2e-4 -0.965-0.0254-1.27-0.0247-0.302-0.0707-0.476-0.138-0.607-0.144-0.282-0.374-0.512-0.656-0.656-0.132-0.067-0.305-0.113-0.608-0.138-0.308-0.0252-0.705-0.0254-1.27-0.0254h-1.8c-0.276 0-0.5-0.224-0.5-0.5s0.224-0.5 0.5-0.5h1.8z" fill="#000"/></svg>
