<svg fill="none" viewBox="0 0 16 16" xmlns="http://www.w3.org/2000/svg"><path d="m14.8 0.015 0.163 0.0361 0.17 0.0635c0.33 0.146 0.594 0.41 0.74 0.74l0.0635 0.17 0.0361 0.163c0.0577 0.373-0.0658 0.701-0.12 0.843-0.0816 0.213-0.208 0.472-0.338 0.74l-5.72 11.8c-0.121 0.25-0.236 0.488-0.337 0.663-0.0507 0.0883-0.121 0.203-0.211 0.31-0.0802 0.0945-0.258 0.282-0.547 0.376-0.451 0.146-0.946 0.0329-1.29-0.295-0.22-0.21-0.298-0.458-0.329-0.578-0.0865-0.337-0.0938-0.716-0.0938-1.06v-5h-4.95c-0.26-2e-5 -0.76-0.00679-1.11-0.0977-0.12-0.031-0.368-0.109-0.578-0.329-0.327-0.343-0.441-0.838-0.295-1.29l0.0391-0.103c0.1-0.229 0.254-0.374 0.337-0.444 0.106-0.0902 0.221-0.16 0.31-0.211 0.176-0.101 0.413-0.216 0.663-0.337l11.8-5.72c0.268-0.13 0.528-0.256 0.74-0.338 0.141-0.0543 0.469-0.178 0.843-0.12zm-0.305 0.997c-0.0633 0.0132-0.118 0.0331-0.18 0.0566-0.164 0.0628-0.379 0.167-0.663 0.305l-11.8 5.72c-0.261 0.126-0.462 0.224-0.601 0.304-0.0361 0.0207-0.067 0.04-0.0938 0.0576l-0.0674 0.0498c-0.0139 0.0118-0.0276 0.0241-0.04 0.0391-0.0103 0.0124-0.0179 0.0243-0.0234 0.0352l-0.00976 0.0254c-0.0288 0.0988-0.00338 0.206 0.0674 0.281 0.108 0.153 0.538 0.118 0.921 0.118 0.383 1e-5 5 0 5 0 0.6-2e-5 1 0.4 1 1v5c-3e-5 0.398-0.00304 0.556 0.0625 0.812l0.0215 0.0615c0.00933 0.0189 0.0192 0.033 0.0293 0.043 0.0764 0.073 0.188 0.0989 0.29 0.0664 0.0142-0.0046 0.0301-0.0124 0.0469-0.0254l0.0459-0.0459c0.031-0.0367 0.0651-0.0892 0.106-0.161 0.0793-0.138 0.178-0.34 0.304-0.601l5.72-11.8c0.137-0.284 0.242-0.498 0.305-0.662 0.0236-0.0617 0.0434-0.117 0.0566-0.181 0.0118-0.0566 0.0126-0.103 0.0088-0.139l-0.0107-0.0478-0.0225-0.0596c-0.0447-0.0927-0.119-0.167-0.212-0.211l-0.0645-0.0244-0.04-0.00879c-0.0364-0.00381-0.0829-0.00205-0.14 0.00977z" fill="#000"/></svg>
