<svg fill="none" viewBox="0 0 16 16" xmlns="http://www.w3.org/2000/svg"><path d="m13 0c1.1 0 2 0.895 2 2v10.5c0 1.93-1.57 3.5-3.5 3.5h-4c-3.04 0-5.5-2.46-5.5-5.5v-7.5c0-1.1 0.895-2 2-2s2 0.895 2 2v1.27c0.294-0.17 0.635-0.27 1-0.27 0.598 0 1.13 0.264 1.5 0.68 0.366-0.416 0.902-0.68 1.5-0.68 0.365 0 0.706 0.0991 1 0.27v-2.27c0-1.1 0.895-2 2-2zm-9 2c-0.552 0-1 0.448-1 1v7.5c0 2.49 2.01 4.5 4.5 4.5h4c1.38 0 2.5-1.12 2.5-2.5v-2c0-0.828-0.672-1.5-1.5-1.5h-4.5c-0.552 0-1 0.448-1 1 0 0.552 0.448 1 1 1h2.5c0.242 0 0.444 0.171 0.49 0.399l0.0196 0.201c0.0399 0.196 0.194 0.35 0.39 0.39l0.201 0.0196c0.228 0.0465 0.399 0.248 0.399 0.49 0 0.276-0.224 0.5-0.5 0.5-0.653 0-1.21-0.418-1.41-1h-2.09c-1.1 0-2-0.895-2-2 0-0.0288 0.0027-0.0574 0.00391-0.0859-0.584-0.205-1-0.76-1-1.41v-5.5c0-0.552-0.448-1-1-1zm4 4c0-0.552-0.448-1-1-1s-1 0.448-1 1v2.5c0 0.203 0.122 0.377 0.296 0.455 0.352-0.573 0.983-0.955 1.7-0.955v-2zm3 2v-2c0-0.552-0.448-1-1-1-0.552 0-1 0.448-1 1v2h2zm1.5 0c0.564 0 1.08 0.188 1.5 0.503v-6.5c0-0.552-0.448-1-1-1s-1 0.448-1 1v6h0.5z" clip-rule="evenodd" fill="#000" fill-rule="evenodd"/></svg>
