<svg fill="none" viewBox="0 0 16 16" xmlns="http://www.w3.org/2000/svg"><path d="m11.8 2c1.12 0 1.68-2.1e-4 2.11 0.218 0.376 0.192 0.682 0.498 0.874 0.874 0.218 0.428 0.218 0.988 0.218 2.11v6.8h0.5c0.276 0 0.5 0.224 0.5 0.5s-0.224 0.5-0.5 0.5h-15c-0.276 0-0.5-0.224-0.5-0.5s0.224-0.5 0.5-0.5h0.5v-6.8c0-1.12-2.14e-4 -1.68 0.218-2.11 0.192-0.376 0.498-0.682 0.874-0.874 0.321-0.163 0.716-0.205 1.37-0.215l0.742-0.00293h7.6zm-7.6 1c-0.577 0-0.949 0.00126-1.23 0.0244-0.272 0.0222-0.372 0.0598-0.422 0.085-0.188 0.0958-0.341 0.249-0.437 0.437-0.0252 0.0494-0.0628 0.15-0.085 0.422-0.0232 0.283-0.0244 0.656-0.0244 1.23v6.8h12v-6.8c0-0.577-0.0013-0.949-0.0244-1.23-0.0222-0.272-0.0598-0.372-0.085-0.422-0.0958-0.188-0.248-0.341-0.436-0.437-0.0494-0.0252-0.15-0.0628-0.422-0.085-0.283-0.0232-0.656-0.0244-1.23-0.0244h-7.6z" clip-rule="evenodd" fill="#000" fill-rule="evenodd"/></svg>
