<svg fill="none" viewBox="0 0 16 16" xmlns="http://www.w3.org/2000/svg"><path d="m11.8 2c1.12 0 1.68-2.1e-4 2.11 0.218 0.376 0.192 0.682 0.498 0.874 0.874 0.218 0.428 0.218 0.988 0.218 2.11v4.6c0 1.12 2e-4 1.68-0.218 2.11l-0.0517 0.0918h0.77c0.276 0 0.5 0.224 0.5 0.5s-0.224 0.5-0.5 0.5h-15c-0.276 0-0.5-0.224-0.5-0.5s0.224-0.5 0.5-0.5h0.77l-0.0518-0.0918c-0.218-0.428-0.218-0.988-0.218-2.11v-4.6c0-1.12-2.14e-4 -1.68 0.218-2.11 0.192-0.376 0.498-0.682 0.874-0.874 0.321-0.163 0.716-0.205 1.37-0.215l0.742-0.00293h7.6zm-7.6 1c-0.577 0-0.949 0.00126-1.23 0.0244-0.272 0.0222-0.372 0.0598-0.422 0.085-0.188 0.0958-0.341 0.249-0.437 0.437-0.0252 0.0494-0.0628 0.15-0.085 0.422-0.0232 0.283-0.0244 0.656-0.0244 1.23v4.6c0 0.577 0.00126 0.949 0.0244 1.23 0.0222 0.272 0.0598 0.372 0.085 0.422 0.0958 0.188 0.249 0.341 0.437 0.436 0.0494 0.0252 0.15 0.0628 0.422 0.085 0.283 0.0231 0.656 0.0244 1.23 0.0244h7.6c0.577 0 0.949-0.0013 1.23-0.0244 0.272-0.0222 0.372-0.0598 0.422-0.085 0.188-0.0958 0.341-0.248 0.436-0.436 0.0252-0.0494 0.0628-0.15 0.085-0.422 0.0231-0.283 0.0244-0.656 0.0244-1.23v-4.6c0-0.577-0.0013-0.949-0.0244-1.23-0.0222-0.272-0.0598-0.372-0.085-0.422-0.0958-0.188-0.248-0.341-0.436-0.437-0.0494-0.0252-0.15-0.0628-0.422-0.085-0.283-0.0232-0.656-0.0244-1.23-0.0244h-1.8l-0.0576 0.115c-0.161 0.321-0.241 0.482-0.36 0.6-0.106 0.104-0.234 0.182-0.374 0.23-0.158 0.0546-0.338 0.0547-0.697 0.0547h-1.02c-0.359 0-0.539-4e-5 -0.697-0.0547-0.14-0.0483-0.268-0.127-0.374-0.23-0.12-0.117-0.2-0.279-0.36-0.6l-0.0576-0.115h-1.8z" clip-rule="evenodd" fill="#000" fill-rule="evenodd"/></svg>
