<svg viewBox="0 0 16 16" xmlns="http://www.w3.org/2000/svg"><path d="m8 3c0.552 0 1 0.448 1 1v3c0 0.552-0.448 1-1 1s-1-0.448-1-1v-3c0-0.552 0.448-1 1-1z" fill="#000"/><path d="m8 0c0.929 0 1.39-3.49e-5 1.78 0.0615 2.14 0.339 3.82 2.02 4.16 4.16 0.0615 0.389 0.0615 0.853 0.0615 1.78v4c0 0.929 0 1.39-0.0615 1.78l-0.0362 0.199c-0.408 2.04-2.05 3.63-4.12 3.96l-0.312 0.0351c-0.338 0.026-0.774 0.0264-1.47 0.0264s-1.13-4e-4 -1.47-0.0264l-0.312-0.0351c-2.07-0.328-3.71-1.91-4.12-3.96l-0.0361-0.199c-0.0616-0.389-0.0615-0.853-0.0615-1.78v-4c0-0.929-3e-5 -1.39 0.0615-1.78 0.339-2.14 2.02-3.82 4.16-4.16 0.389-0.0616 0.853-0.0615 1.78-0.0615zm0 1c-0.967 0-1.33 0.00268-1.63 0.0488-1.71 0.271-3.05 1.61-3.33 3.33-0.0462 0.291-0.0488 0.659-0.0488 1.63v4c0 0.967 0.00268 1.33 0.0488 1.63 0.271 1.71 1.61 3.05 3.33 3.33 0.291 0.0461 0.659 0.0488 1.63 0.0488s1.33-0.0027 1.63-0.0488c1.71-0.271 3.05-1.61 3.33-3.33 0.0461-0.291 0.0488-0.659 0.0488-1.63v-4c0-0.967-0.0027-1.33-0.0488-1.63-0.271-1.71-1.61-3.05-3.33-3.33-0.291-0.0462-0.659-0.0488-1.63-0.0488z" clip-rule="evenodd" fill="#000" fill-rule="evenodd"/></svg>
