<svg viewBox="0 0 16 16" xmlns="http://www.w3.org/2000/svg"><path d="m9.6 1.63e-9c2.24 0 3.36-4.27e-4 4.22 0.436 0.752 0.383 1.36 0.996 1.75 1.75 0.436 0.856 0.436 1.98 0.436 4.22v1.94c-0.111-0.0529-0.226-0.1-0.344-0.142-0.194-0.068-0.406-0.112-0.656-0.141v-1.66c0-1.14-4e-4 -1.93-0.0508-2.55-0.0494-0.605-0.142-0.953-0.276-1.22-0.288-0.564-0.746-1.02-1.31-1.31-0.263-0.134-0.612-0.227-1.22-0.276-0.617-0.0504-1.41-0.0508-2.55-0.0508h-3.2c-1.14 0-1.93 4.1e-4 -2.55 0.0508-0.605 0.0494-0.953 0.142-1.22 0.276-0.564 0.288-1.02 0.746-1.31 1.31-0.134 0.263-0.227 0.612-0.276 1.22-0.0504 0.617-0.0508 1.41-0.0508 2.55v3.2c0 1.14 4.1e-4 1.93 0.0508 2.55 0.0494 0.605 0.142 0.953 0.276 1.22 0.288 0.564 0.746 1.02 1.31 1.31 0.263 0.134 0.612 0.227 1.22 0.276 0.617 0.0504 1.41 0.0508 2.55 0.0508h1.66c0.0291 0.251 0.0716 0.462 0.14 0.656 0.0412 0.118 0.0896 0.232 0.143 0.344h-1.94l-1.48-0.0068c-1.19-0.0188-1.96-0.0891-2.57-0.353l-0.164-0.0761c-0.658-0.336-1.21-0.846-1.59-1.47l-0.154-0.275c-0.436-0.856-0.436-1.98-0.436-4.22v-3.2c0-2.24-4.27e-4 -3.36 0.436-4.22 0.383-0.752 0.996-1.36 1.75-1.75 0.642-0.327 1.43-0.408 2.73-0.429l1.48-0.00684h3.2z" fill="#000" opacity=".3"/><path d="m13.6 10c0.84 0 1.26-1.9e-4 1.58 0.163 0.282 0.144 0.512 0.374 0.656 0.656 0.163 0.321 0.163 0.741 0.163 1.58v1.2c0 0.84 2e-4 1.26-0.163 1.58-0.144 0.282-0.374 0.512-0.656 0.656-0.321 0.163-0.741 0.163-1.58 0.163h-1.2c-0.84 0-1.26 2e-4 -1.58-0.163-0.282-0.144-0.512-0.374-0.656-0.656-0.163-0.321-0.163-0.741-0.163-1.58v-1.2c0-0.84-1.9e-4 -1.26 0.163-1.58 0.144-0.282 0.374-0.512 0.656-0.656 0.321-0.163 0.741-0.163 1.58-0.163h1.2z" fill="#000"/><path d="m8.5 4c0.276 0 0.5 0.224 0.5 0.5v4c0 0.0327-0.00338 0.0654-0.00977 0.0977-0.0101 0.0512-0.0302 0.0983-0.0547 0.143-0.0222 0.0402-0.048 0.0792-0.082 0.113-0.0341 0.0341-0.0731 0.0598-0.113 0.082-0.0443 0.0245-0.0914 0.0445-0.143 0.0547-0.0322 0.00639-0.0649 0.00977-0.0977 0.00977h-4c-0.276 0-0.5-0.224-0.5-0.5s0.224-0.5 0.5-0.5h2.79l-3.15-3.15c-0.195-0.195-0.195-0.512 0-0.707 0.195-0.195 0.512-0.195 0.707 0l3.15 3.15v-2.79c0-0.276 0.224-0.5 0.5-0.5z" fill="#000"/></svg>
