<svg viewBox="0 0 16 16" xmlns="http://www.w3.org/2000/svg"><path d="m7.18 0.181c0.239-0.241 0.628-0.241 0.867 0l2.77 2.8c0.234 0.236 0.24 0.617 0.0127 0.86l-2.77 2.97c-0.232 0.248-0.62 0.26-0.866 0.0264-0.246-0.234-0.258-0.626-0.0264-0.874l1.85-1.98c-0.0929-5.1e-4 -0.19-0.00165-0.291-9.8e-4 -0.716 0.00482-1.57 0.0461-2.2 0.181-3.16 0.675-5.53 3.48-5.53 6.85 2e-5 1.18 0.292 2.29 0.807 3.27 0.129 0.244 0.036 0.547-0.208 0.676-0.244 0.129-0.547 0.0351-0.676-0.209-0.589-1.12-0.923-2.39-0.923-3.73 5.74e-5 -3.84 2.71-7.05 6.32-7.82 0.735-0.157 1.67-0.197 2.4-0.202 0.126-8.4e-4 0.247 1e-5 0.36 9.8e-4l-1.9-1.92c-0.239-0.241-0.239-0.634 0-0.875z" fill="#000"/><path d="m15.3 7.9c0.424 0.986 0.66 2.07 0.66 3.2 0 1.31-0.315 2.54-0.87 3.63-0.125 0.246-0.426 0.344-0.672 0.219-0.246-0.125-0.344-0.426-0.219-0.672 0.486-0.953 0.761-2.03 0.761-3.17 0-0.85-0.152-1.67-0.429-2.43l0.768-0.769z" fill="#000"/><path d="m13.4 5c0.162 0.00409 0.315 0.067 0.427 0.179 0.112 0.112 0.175 0.265 0.179 0.427 0.0038 0.162-0.0514 0.32-0.157 0.438-0.0852 0.094-0.172 0.188-0.257 0.282-1.53 1.69-3.07 3.39-4.6 5.08-0.0852 0.0941-0.171 0.189-0.256 0.283-0.178 0.197-0.425 0.311-0.69 0.311-0.265 1e-4 -0.528-0.114-0.726-0.311-0.197-0.197-0.311-0.46-0.311-0.726-1.2e-4 -0.266 0.114-0.512 0.311-0.69 0.0941-0.0853 0.189-0.171 0.283-0.256 1.69-1.53 3.39-3.07 5.08-4.6 0.094-0.0852 0.188-0.172 0.282-0.257 0.117-0.106 0.276-0.161 0.438-0.157z" fill="#000"/></svg>
