<svg viewBox="0 0 16 16" xmlns="http://www.w3.org/2000/svg"><path d="m8 2c1.11 0 2.16 0.23 3.11 0.644l-0.77 0.771c-0.733-0.267-1.52-0.414-2.34-0.414-3.86 0-7 3.23-7 7.1 0 1.14 0.275 2.22 0.761 3.17 0.125 0.246 0.0272 0.547-0.219 0.672-0.246 0.125-0.547 0.0272-0.672-0.219-0.555-1.09-0.87-2.32-0.87-3.63 2.11e-4 -4.41 3.57-8.1 8-8.1z" fill="#000"/><path d="m15.3 6.9c0.424 0.986 0.66 2.07 0.66 3.2 0 1.31-0.315 2.54-0.87 3.63-0.125 0.246-0.426 0.344-0.672 0.219-0.246-0.125-0.344-0.426-0.219-0.672 0.486-0.953 0.761-2.03 0.761-3.17 0-0.85-0.152-1.67-0.429-2.43l0.768-0.769z" fill="#000"/><path d="m13.4 4c0.162 0.00409 0.315 0.067 0.427 0.179 0.112 0.112 0.175 0.265 0.179 0.427 0.0038 0.162-0.0514 0.32-0.157 0.438-0.0852 0.094-0.172 0.188-0.257 0.282-1.53 1.69-3.07 3.39-4.6 5.08-0.0852 0.0942-0.171 0.189-0.256 0.283-0.178 0.197-0.425 0.311-0.69 0.31-0.265 1e-4 -0.528-0.114-0.726-0.31-0.197-0.197-0.311-0.46-0.311-0.726-1.2e-4 -0.266 0.114-0.512 0.311-0.69 0.0941-0.0853 0.189-0.171 0.283-0.256 1.69-1.53 3.39-3.07 5.08-4.6 0.094-0.0852 0.188-0.172 0.282-0.257 0.117-0.106 0.276-0.161 0.438-0.157z" fill="#000"/></svg>
