<svg fill="none" viewBox="0 0 16 16" xmlns="http://www.w3.org/2000/svg"><path d="m11.2 0c0.276 0 0.414 0 0.51 0.0417 0.0968 0.0422 0.149 0.0851 0.21 0.172 0.0599 0.0855 0.0932 0.251 0.16 0.582 0.317 1.57 1.55 2.81 3.13 3.13 0.331 0.0667 0.496 0.1 0.582 0.16 0.0866 0.0605 0.129 0.113 0.172 0.21 0.0417 0.0956 0.0417 0.234 0.0417 0.509v0.4c0 0.275 0 0.413-0.0639 0.527-0.0516 0.0921-0.153 0.181-0.251 0.22-0.121 0.0483-0.242 0.0322-0.483 2e-4 -1.22-0.163-2.33-0.693-3.2-1.48v6.53c0 2.76-2.24 5-5 5s-5-2.24-5-5c0-2.76 2.24-5 5-5 0.118 0 0.236 0.00407 0.352 0.0121 0.198 0.0136 0.296 0.0205 0.396 0.0774 0.0798 0.0456 0.162 0.134 0.202 0.216 0.0499 0.103 0.0499 0.218 0.0499 0.448v0.4c0 0.289 0 0.434-0.0298 0.516-0.0619 0.171-0.129 0.238-0.3 0.3-0.0824 0.0298-0.278 0.0298-0.67 0.0298-1.66 0-3 1.34-3 3 0 1.66 1.34 3 3 3s3-1.34 3-3v-10.2c0-0.28 0-0.42 0.0545-0.527 0.0479-0.0941 0.124-0.171 0.218-0.219 0.107-0.0545 0.247-0.0545 0.527-0.0545h0.4z" fill="#000"/></svg>
