<svg xmlns="http://www.w3.org/2000/svg" id="bbbdcf65-3739-4dbc-b087-782b22710417" width="18" height="18" viewBox="0 0 18 18"><defs><linearGradient id="eb32dcec-9280-43a7-8fb4-14f8780a43df" x1="8.15" x2="8.15" y1="17.5" y2="2.09" gradientUnits="userSpaceOnUse"><stop offset="0" stop-color="#1988d9"/><stop offset=".9" stop-color="#54aef0"/></linearGradient></defs><title>Icon-manage-324</title><path fill="#005ba1" d="M1.93,2.11,3.14.7A.59.59,0,0,1,3.59.5H15.2a.81.81,0,0,1,.89.83v14.5a.57.57,0,0,1-.2.43l-1.3,1.19H2.72l-.81-.33Z"/><path fill="#fff" d="M2.91,2.1l.74-.84A.5.5,0,0,1,4,1.08H14.89a.52.52,0,0,1,.52.52V15.38a.52.52,0,0,1-.17.39l-1.16,1.05Z"/><path fill="url(#eb32dcec-9280-43a7-8fb4-14f8780a43df)" d="M14,2.09H2a.06.06,0,0,0-.06.06v15a.39.39,0,0,0,.39.38H14a.38.38,0,0,0,.38-.38V2.48A.39.39,0,0,0,14,2.09Z"/><rect width="6.58" height="2.38" x="4.72" y="6.2" fill="#fff" rx=".28"/></svg>